<svg width="82" height="79" viewBox="0 0 82 79" version="1.1" xmlns="http://www.w3.org/2000/svg" xmlns:xlink="http://www.w3.org/1999/xlink"><title>Group 4</title><desc>Created with Sketch.</desc><g id="Browser-extension" stroke="none" stroke-width="1" fill="none" fill-rule="evenodd"><g id="10.-Password-unlock-screen" transform="translate(-303.000000, -270.000000)" fill="#E4E8F1" fill-rule="nonzero"><g id="#container" transform="translate(159.000000, 82.000000)"><g id="browser-extension-door-hole-unlock" transform="translate(120.000000, 163.000000)"><g id="Group-4"><g transform="translate(23.000000, 25.000000)"><g id="Group-2" transform="translate(48.223001, 0.000000)"><path d="M1.87221001,4.89742678 C5.07778181,5.7259438 6.31315987,0.920051916 3.10758807,0.0940007204 C-0.0930520897,-0.727118827 -1.3333618,4.07877306 1.87221001,4.89742678" id="Shape"/><path d="M15.9213998,12.4247085 C18.4562674,14.5453176 21.6421126,10.7454821 19.107245,8.62487302 C16.5822408,6.49440068 13.3889981,10.2991678 15.9213998,12.4247085" id="Shape"/><path d="M25.2793903,24.5867981 C26.7366926,27.5556507 31.1899715,25.3758619 29.7351351,22.4070093 C28.2827645,19.4356908 23.8245539,21.6228771 25.2793903,24.5867981" id="Shape"/><path d="M1.87221001,74.0696739 C5.07778181,73.2436227 6.31315987,78.056912 3.10758807,78.8804974 C-0.0930520897,79.6991511 -1.3333618,74.8932592 1.87221001,74.0696739" id="Shape"/><path d="M15.9213998,66.6017246 C18.4562674,64.4786498 21.6421126,68.2809511 19.107245,70.3966285 C16.5822408,72.5320325 13.3889981,68.7272653 15.9213998,66.6017246" id="Shape"/><path d="M25.2793903,55.3937186 C26.7366926,52.4248659 31.1899715,54.6120522 29.7351351,57.5833707 C28.2827645,60.5448259 23.8245539,58.365037 25.2793903,55.3937186" id="Shape"/><path d="M28.9900984,40.4670285 C28.9900984,43.7810966 33.9464056,43.7810966 33.9464056,40.4670285 C33.9464056,37.1603579 28.9900984,37.1603579 28.9900984,40.4670285" id="Shape"/></g><g id="Group-3" transform="translate(17.488733, 39.500000) scale(-1, 1) translate(-17.488733, -39.500000) translate(0.988733, 0.000000)"><path d="M1.87221001,4.89742678 C5.07778181,5.7259438 6.31315987,0.920051916 3.10758807,0.0940007204 C-0.0930520897,-0.727118827 -1.3333618,4.07877306 1.87221001,4.89742678" id="Shape-Copy" transform="translate(2.490625, 2.496516) scale(-1, 1) translate(-2.490625, -2.496516)"/><path d="M15.9213998,12.4247085 C18.4562674,14.5453176 21.6421126,10.7454821 19.107245,8.62487302 C16.5822408,6.49440068 13.3889981,10.2991678 15.9213998,12.4247085" id="Shape-Copy-2" transform="translate(17.515582, 10.522616) scale(-1, 1) translate(-17.515582, -10.522616)"/><path d="M25.2793903,24.5867981 C26.7366926,27.5556507 31.1899715,25.3758619 29.7351351,22.4070093 C28.2827645,19.4356908 23.8245539,21.6228771 25.2793903,24.5867981" id="Shape-Copy-3" transform="translate(27.507383, 23.496910) scale(-1, 1) translate(-27.507383, -23.496910)"/><path d="M1.87221001,74.0696739 C5.07778181,73.2436227 6.31315987,78.056912 3.10758807,78.8804974 C-0.0930520897,79.6991511 -1.3333618,74.8932592 1.87221001,74.0696739" id="Shape-Copy-4" transform="translate(2.490625, 76.474348) scale(-1, 1) translate(-2.490625, -76.474348)"/><path d="M15.9213998,66.6017246 C18.4562674,64.4786498 21.6421126,68.2809511 19.107245,70.3966285 C16.5822408,72.5320325 13.3889981,68.7272653 15.9213998,66.6017246" id="Shape-Copy-5" transform="translate(17.515582, 68.502086) scale(-1, 1) translate(-17.515582, -68.502086)"/><path d="M25.2793903,55.3937186 C26.7366926,52.4248659 31.1899715,54.6120522 29.7351351,57.5833707 C28.2827645,60.5448259 23.8245539,58.365037 25.2793903,55.3937186" id="Shape-Copy-6" transform="translate(27.507383, 56.486901) scale(-1, 1) translate(-27.507383, -56.486901)"/><path d="M27.9904399,40.4670285 C27.9904399,43.7810966 32.9467471,43.7810966 32.9467471,40.4670285 C32.9467471,37.1603579 27.9904399,37.1603579 27.9904399,40.4670285" id="Shape-Copy-7" transform="translate(30.468593, 40.469803) scale(-1, 1) translate(-30.468593, -40.469803)"/></g></g></g></g></g></g></g></svg>