<svg xmlns="http://www.w3.org/2000/svg" width="30" height="55" viewBox="0 0 30 55">
    <g fill="none" fill-rule="evenodd">
        <path fill="#D4D5D3" fill-rule="nonzero" d="M25.831 0H4.17A4.169 4.169 0 0 0 0 4.168v46.664A4.172 4.172 0 0 0 4.169 55H25.83A4.172 4.172 0 0 0 30 50.832V4.168A4.169 4.169 0 0 0 25.831 0zM1.673 9.201h26.654V44.48H1.673V9.2zM4.168 1.65h21.663a2.501 2.501 0 0 1 2.502 2.503v3.382H1.673V4.168A2.503 2.503 0 0 1 4.167 1.65zm21.663 51.7H4.168a2.501 2.501 0 0 1-2.502-2.503v-4.703h26.66v4.688a2.503 2.503 0 0 1-2.495 2.518z"/>
        <path fill="#D4D5D3" fill-rule="nonzero" d="M17.143 50.356c0 3.335-5 3.335-5 0 0-3.332 5-3.332 5 0M11.689 4.991h6.622a.95.95 0 0 0 .68-.162.675.675 0 0 0 .295-.543.676.676 0 0 0-.296-.545.94.94 0 0 0-.679-.16H11.69a.94.94 0 0 0-.68.16.676.676 0 0 0-.295.545c0 .21.108.408.296.543a.95.95 0 0 0 .679.162z"/>
        <path fill="#008C73" d="M10.781 19.887c-.168.118-.42.034-.506-.134-.117-.186-.033-.405.135-.523.202-.134.421-.235.64-.336a10.205 10.205 0 0 1 3.536-.876c1.902-.117 3.788.337 5.472 1.179.186.084.236.354.135.522-.101.186-.337.236-.522.135a10.46 10.46 0 0 0-3.098-1.01 9.548 9.548 0 0 0-4.142.32 8.176 8.176 0 0 0-.69.235.805.805 0 0 0-.118.05s-.084.051-.034.018c.05-.017-.084.033-.1.05-.085.05-.152.084-.236.118-.169.084-.32.151-.472.252zm-.859 11.129c.084.202-.084.438-.187.459-.219.067-.387-.068-.472-.27a.234.234 0 0 0-.033-.101 8.831 8.831 0 0 1-.438-2.088c-.118-1.178.017-2.374.471-3.451.59-1.398 1.768-2.458 3.132-3.081 1.97-.91 4.277-.775 6.196.235.74.388 1.38.943 1.886 1.6.454.573.859 1.246 1.094 1.953.354 1.077.438 2.408-.32 3.317-.622.74-1.734.976-2.643.707a2.442 2.442 0 0 1-1.28-.876 1.56 1.56 0 0 1-.219-.354 2.193 2.193 0 0 1-.134-.353c-.017-.051-.017-.118-.034-.169 0-.05-.017-.084-.017-.135 0 .017.017.085 0-.017-.05-.387-.034-.74-.235-1.06a1.548 1.548 0 0 0-.724-.59c-.774-.32-1.7-.185-2.172.59-.218.37-.286.79-.235 1.212 0 .05.017.1.017.15.017.017.017.034.017.068.017.1.033.202.05.32.051.252.118.505.202.74a.933.933 0 0 0 .067.202c0 .017.017.05.034.084l.017.034.202.403c.337.59.707 1.06 1.246 1.499.64.539 1.464.926 2.272 1.195.472.151.27.892-.202.74a9.116 9.116 0 0 1-1.33-.538c-1.312-.656-2.373-1.733-2.928-3.097-.488-1.179-.741-2.711.168-3.755 1.196-1.38 3.839-.808 4.209 1.044.017.15.05.286.05.42.018.085-.016.202.018.287-.067-.152-.017-.017 0 .05 0 .05.016.118.033.169.034.1.05.134.084.202.169.32.405.555.724.724.421.219.926.252 1.364.117.202-.05.404-.134.573-.27a.722.722 0 0 0 .134-.117l.085-.084.033-.05c.202-.27.27-.455.32-.792v-.404c0-.151 0-.286-.017-.42 0-.017-.017-.17 0-.068 0-.034-.017-.068-.017-.101-.017-.068-.017-.135-.034-.186a1.928 1.928 0 0 0-.067-.303 2.823 2.823 0 0 0-.118-.354c-.05-.118-.117-.236-.168-.353a7.746 7.746 0 0 0-.337-.64c-.219-.371-.454-.724-.757-1.028a5.313 5.313 0 0 0-2.004-1.313 6.567 6.567 0 0 0-3.013-.42c-.942.083-1.852.437-2.643.942-.32.202-.59.421-.859.674a4.567 4.567 0 0 0-.606.69c-.37.522-.573 1.01-.74 1.617-.052.135-.069.287-.102.438-.017.067-.017.135-.034.202 0 .016-.017.117 0 .033-.017.034-.017.068-.017.102-.033.269-.05.555-.05.824 0 .27 0 .522.033.775 0 .067.017.135.017.202a.15.15 0 0 1 .017.084c.017.1.034.218.051.32.084.488.185.96.37 1.414zM8.71 23.979c-.27.42-.926.033-.639-.387.353-.556.842-1.044 1.33-1.482.976-.841 2.121-1.498 3.367-1.852.96-.269 1.987-.336 2.98-.286a8.573 8.573 0 0 1 3.03.707c1.431.623 2.627 1.65 3.536 2.913.118.169.034.421-.135.522-.185.118-.404.034-.522-.134-.926-1.263-2.222-2.29-3.67-2.796a9.266 9.266 0 0 0-1.499-.37c-.017-.017-.05-.017-.084-.017-.101-.017.084.017-.017 0-.05 0-.1-.017-.151-.017a1.511 1.511 0 0 0-.27-.034c-.152 0-.32-.017-.471-.017a8.674 8.674 0 0 0-.943 0 8.09 8.09 0 0 0-2.105.438 7.945 7.945 0 0 0-2.811 1.751c-.253.253-.506.522-.725.791-.016.034-.05.05-.067.084a.338.338 0 0 1-.067.102.301.301 0 0 0-.067.084zm6.061 4.125c.017-.489.775-.489.774-.018v.303c0 .017.017.135 0 .05 0-.083.017.034.017.051.033.152.067.304.117.455.034.084.051.168.085.252.017.05.033.084.05.135.017.017.034.067 0-.017 0 .017.017.034.017.05a5 5 0 0 0 .27.523c.068.084.118.185.185.27 0 .017.102.134.051.084.034.033.068.084.101.117.135.169.304.337.472.472 0 .016.016.016.034.033a.227.227 0 0 0 .067.051c.05.017.084.05.134.084.102.051.202.118.304.169.201.1.386.168.656.235.606.151 1.263.1 1.919.034.219-.017.387.185.387.387 0 .219-.185.37-.387.387-.808.085-1.582.118-2.357-.117-.993-.303-1.801-1.01-2.307-1.92-.353-.622-.606-1.346-.589-2.07zm4.916.033c0 .505-.774.505-.807.034 0-.117 0-.252-.018-.387 0-.033-.017-.168 0-.033 0-.051-.017-.085-.017-.135-.033-.22-.1-.421-.168-.623-.016-.05-.05-.118-.067-.168-.034-.085.016.05-.017-.034 0-.033-.017-.05-.034-.084-.05-.118-.101-.236-.168-.337a2.835 2.835 0 0 0-.505-.656 3.495 3.495 0 0 0-1.498-.91c-.791-.252-1.633-.286-2.442-.016a3.972 3.972 0 0 0-.96.488c-.218.168-.386.286-.605.505a3.296 3.296 0 0 0-.876 1.633c-.068.32-.101.64-.101.976 0 .152.016.32.033.472 0 .05.018.118.018.168.017.102-.018-.084 0 .017.017.017.017.05.017.068.016.1.033.219.067.336.303 1.431 1.078 2.694 2.121 3.704.354.337-.184.876-.538.539-1.246-1.196-2.138-2.762-2.39-4.479-.136-.942-.068-1.919.319-2.811.605-1.364 2.054-2.357 3.518-2.543 1.516-.203 3.2.37 4.159 1.582.605.758.993 1.718.96 2.694z"/>
    </g>
</svg>
