<svg id="Layer_1" data-name="Layer 1" xmlns="http://www.w3.org/2000/svg" viewBox="0 0 1670 280"><defs><style>.cls-1{fill:#001428;}</style></defs><title>name_darkblue</title><path class="cls-1" d="M1582.39,130.22c15.37,0,25.83,9.8,29.1,25.5h-59.85c3.28-16,15-25.5,30.75-25.5m78.81,40.54c0-47.42-33-81.1-78.16-81.1-48.39,0-82.4,34.33-82.4,82.74,0,49.7,35.31,83,83.71,83,36.3,0,58.53-12.09,71.94-28.78l-29.43-30.08a50.43,50.43,0,0,1-37.28,17.33c-19.62,0-35-9.49-38.26-27.79h108.89c.32-3.27,1-10.8,1-15.37M1415,252.51h51.34V133.81h30.42V92.61H1466.3V69.39c0-12.76,5.89-17.33,15-17.33,4.57,0,13.08,2.29,19.94,5.89l9.48-37c-5.56-3.93-21.9-12.42-43.15-12.42-32,0-52.66,19.29-52.66,58.86V92.61H1399.6v41.2H1415Zm-116.08-42.18c-20.27,0-34.34-15-34.34-37.61,0-22.89,14.72-37.93,34.34-37.93,19,0,33.68,16,33.68,37.93,0,22.89-15.37,37.61-33.68,37.61m-10.79,45.12c19.3,0,33.68-6.53,44.15-19.94l.65.32v16.68h48.73V92.61h-51.34v16.68l-.67.32c-11.1-13.08-27.14-20-44.14-20-41.2,0-72.92,34-72.92,83.06,0,49.38,31.72,82.73,75.54,82.73m-173,0c38.6,0,85.36-19.62,85.36-74.23,0-44.79-31.39-55.27-72.27-71-25.18-9.81-33.68-15.69-33.35-26.81,0-11.12,8.17-18,21.58-18,13.08,0,27.46,6.21,47.41,21.9l30.74-39.89c-22.24-19-50-30.74-80.44-30.08-43.17.65-76.19,29.75-76.19,68.33,0,45.78,35.32,62.47,70.63,74.56,26.16,8.83,34.34,14.39,34.34,27.15,0,10.46-7.85,19.62-26.17,19.62-16,0-37.27-8.17-54.92-27.48l-32,38.92c24.85,25.5,55.59,36.95,85.33,36.95m-227.9,0c43.82,0,65.07-21.58,65.07-51.34,0-31.39-19.29-40.55-54.61-52.64-16-5.56-21.9-9.16-21.9-14.07,0-6.21,6.86-8.82,12.74-8.82,10.8,0,24.53,5.56,35.65,16.67l24.2-35.64c-18.64-13.73-36.3-20-60.5-20-33.35,0-59.83,18.64-59.83,51,0,30.74,23.53,43.82,50.35,52,20,6.23,24.85,9.49,24.85,14.72,0,5.89-5.24,9.49-15.37,9.49-14.72,0-28.45-5.89-41.86-18l-23.86,33c17.66,15.69,39.9,23.54,65.07,23.54m-134.07-2.94h51V92.61h-51ZM778.64,72.67c17.65,0,30.73-12.76,30.73-29.44,0-16-13.08-28.78-30.73-28.78s-30.42,13.08-30.42,28.78c0,16.68,12.76,29.44,30.42,29.44M666.81,255.45c43.82,0,65.07-21.58,65.07-51.34,0-31.39-19.29-40.55-54.6-52.64-16-5.56-21.92-9.16-21.92-14.07,0-6.21,6.88-8.82,12.76-8.82,10.78,0,24.53,5.56,35.64,16.67L728,109.61c-18.64-13.73-36.3-20-60.5-20-33.35,0-59.84,18.64-59.84,51,0,30.74,23.54,43.82,50.36,52,19.95,6.23,24.85,9.49,24.85,14.72,0,5.89-5.22,9.49-15.37,9.49-14.71,0-28.44-5.89-41.86-18l-23.86,33c17.65,15.69,39.89,23.54,65.07,23.54M506.92,210.33c-20.28,0-35-16.35-35-37.61,0-21.91,14.39-37.61,35-37.61,19.94,0,34.66,15.37,34.66,37.61,0,21.91-15.37,37.61-34.66,37.61m0,45.12c50.35,0,86.32-33.67,86.32-82.73,0-49.38-36-83.06-86.32-83.06-51.67,0-86.67,34.33-86.67,83.06,0,48.39,35,82.73,86.67,82.73m-262.58-2.94h51V172.07c0-24.85,11.77-37,29.44-37,16.67,0,25.5,7.53,25.5,34v83.39h51V156.69c0-50.68-24.2-67-57.23-67-18.64,0-35.64,7.19-48.06,21.59h-.67V92.61h-51Zm-119.69,2.62c36,0,71.29-12.1,92.54-28.46V122.37H119.74v45.12h45.13V195a80.81,80.81,0,0,1-40.22,10.14c-39.57,0-62.78-30.74-62.78-68.35,0-43.17,27.47-68.35,60.5-68.35,24.85,0,43.15,10.8,55.59,22.89L216.54,58.6C192.68,31.13,156,17.06,122.37,17.06,48.14,17.06,4.64,69.39,4.64,136.75c0,75.54,53,118.38,120,118.38"/></svg>