<svg width="20" height="20" viewBox="0 0 20 20" version="1.1" xmlns="http://www.w3.org/2000/svg" xmlns:xlink="http://www.w3.org/1999/xlink"><g stroke="none" stroke-width="1" fill="none" fill-rule="evenodd"><g fill="#65707E" fill-rule="nonzero"><path d="M11,7 L9,7 L9,5 L11,5 L11,7 Z M11,15 L9,15 L9,9 L11,9 L11,15 Z M10,0 C4.4771525,-2.22044605e-15 0,4.4771525 -4.4408921e-16,10 C-1.77635684e-15,12.6521649 1.0535684,15.195704 2.92893219,17.0710678 C4.80429597,18.9464316 7.3478351,20 10,20 C12.6521649,20 15.195704,18.9464316 17.0710678,17.0710678 C18.9464316,15.195704 20,12.6521649 20,10 C20,7.3478351 18.9464316,4.80429597 17.0710678,2.92893219 C15.195704,1.0535684 12.6521649,-2.22044605e-16 10,0 Z" id="Shape"/></g></g></svg>