<svg width="28" height="29" viewBox="0 0 28 29" version="1.1" xmlns="http://www.w3.org/2000/svg" xmlns:xlink="http://www.w3.org/1999/xlink"><title>Shape</title><desc>Created with Sketch.</desc><g id="Browser-extension" stroke="none" stroke-width="1" fill="none" fill-rule="evenodd"><g id="4.-Safe-Overview---INIT-state" transform="translate(-400.000000, -294.000000)" fill="#28B2FA" fill-rule="nonzero"><g id="Group-4" transform="translate(365.000000, 294.000000)"><path d="M62.1586197,2.23026544 C62.562155,1.82673014 62.562155,1.16532762 62.1586197,0.761796606 C61.7550844,0.358261302 61.0936819,0.358261302 60.6901508,0.761796606 L57.7716451,3.68030233 L57.796761,3.70876726 C55.5513642,1.57053295 52.4034879,0.234345474 48.9275659,0.234345474 C45.5469327,0.234345474 42.472527,1.49851977 40.240547,3.5346068 L40.2438956,3.53125776 L37.4744314,0.761793606 C37.0708961,0.358258301 36.4094936,0.358258301 36.0059626,0.761793606 C35.6024316,1.16532891 35.6024273,1.82673142 36.0059626,2.23026244 L38.8374095,5.06170937 L38.8625258,5.03491875 C37.4476382,6.86838298 36.6121138,9.10040589 36.6121138,11.5015312 L36.6121138,28.0581337 L61.2410513,28.0581337 L61.2393765,11.4998166 C61.2393765,9.18579295 60.4657921,7.0272835 59.1446931,5.23424096 L59.1497164,5.23926388 L62.1586197,2.23026544 Z M43.9024203,10.3578962 C42.9714356,10.3578962 42.2162831,9.60274371 42.2162831,8.67175898 C42.2162831,7.74077426 42.9714356,6.98562173 43.9024203,6.98562173 C44.8334051,6.98562173 45.5885576,7.74077426 45.5885576,8.67175898 C45.5902323,9.60274371 44.8350768,10.3578962 43.9024203,10.3578962 Z M53.9491167,10.3578962 C53.018132,10.3578962 52.2629795,9.60274371 52.2629795,8.67175898 C52.2629795,7.74077426 53.018132,6.98562173 53.9491167,6.98562173 C54.8801015,6.98562173 55.635254,7.74077426 55.635254,8.67175898 C55.635254,9.60274371 54.8801015,10.3578962 53.9491167,10.3578962 Z" id="Shape"/></g></g></g></svg>