<svg width="12" height="12" viewBox="0 0 12 12" version="1.1" xmlns="http://www.w3.org/2000/svg" xmlns:xlink="http://www.w3.org/1999/xlink"><title>external_link</title><desc>Created with Sketch.</desc><g id="Symbols" stroke="none" stroke-width="1" fill="none" fill-rule="evenodd"><g id="SafeQR" transform="translate(-222.000000, -296.000000)" fill="#28B2FA" fill-rule="nonzero"><g id="Group-5"><g transform="translate(95.000000, 292.000000)"><path d="M134.333333,4 L134.333333,5.33333333 L136.726667,5.33333333 L130.173333,11.8866667 L131.113333,12.8266667 L137.666667,6.27333333 L137.666667,8.66666667 L139,8.66666667 L139,4 L134.333333,4 Z M137.666667,14.6666667 L128.333333,14.6666667 L128.333333,5.33333333 L133,5.33333333 L133,4 L128.333333,4 C127.593333,4 127,4.6 127,5.33333333 L127,14.6666667 C127,15.4030463 127.596954,16 128.333333,16 L137.666667,16 C138.403046,16 139,15.4030463 139,14.6666667 L139,10 L137.666667,10 L137.666667,14.6666667 Z" id="external_link"/></g></g></g></g></svg>