<svg width="32" height="32" viewBox="0 0 32 32" version="1.1" xmlns="http://www.w3.org/2000/svg" xmlns:xlink="http://www.w3.org/1999/xlink"><title>#logo</title><desc>Created with Sketch.</desc><defs><polygon id="path-1" points="18.0247438 0.160276927 0.25981233 0.160276927 0.25981233 31.9421313 18.0247438 31.9421313 18.0247438 0.160276927"/><linearGradient x1="50%" y1="100%" x2="50%" y2="4.486%" id="linearGradient-3"><stop stop-color="#34AAFD" offset="0%"/><stop stop-color="#00CFEE" offset="100%"/></linearGradient></defs><g id="Browser-extension" stroke="none" stroke-width="1" fill="none" fill-rule="evenodd"><g id="2.-Setup:-Master-Password-1" transform="translate(-328.000000, -96.000000)"><g id="#logo" transform="translate(328.440779, 95.890625)"><g id="gnosis_safe_logo_2018"><g><path d="M10.590177,16.2950186 L5.98404398,11.7158244 C5.56886604,12.2733175 5.31805599,12.9653925 5.31805599,13.7124076 C5.31805599,15.5198946 6.78927625,16.9879454 8.59263886,16.9879454 C9.34166243,16.9879454 10.0361806,16.7375208 10.590177,16.2950186" id="Fill-10" fill="#28B2FA"/><g id="Group-17" transform="translate(0.045935, 0.000000)"><mask id="mask-2" fill="#fff"><use xlink:href="#path-1"/></mask><path d="M5.01888996,5.87449605 C7.8077899,3.13592208 11.4618905,1.64816068 15.3807166,1.64816068 L15.4053328,1.64816068 C15.4485121,1.64816068 15.4916915,1.65060766 15.5344672,1.65142331 L15.5344672,16.5282217 L5.01888996,5.87449605 Z M15.3524684,0.159991447 C10.804112,0.159991447 6.57132783,2.02173235 3.46806628,5.34064745 L2.9676704,5.87449605 L15.5344672,18.6301741 L15.5344672,20.917281 L15.4848312,20.967444 L12.2516282,17.6729986 C10.7516511,18.6819684 8.83239082,18.9751977 7.01966639,18.3365369 C3.96805862,17.2203081 2.38939033,13.8455203 3.4951038,10.790063 C3.65208283,10.312087 3.88856024,9.88590536 4.15086453,9.48827176 L2.75782697,8.07922142 L2.49511913,8.53109632 C1.04881362,10.923831 0.259883021,13.6868747 0.259883021,16.5306687 C0.234459682,25.0090326 7.06970598,31.9413156 15.4573901,31.9413156 L18.0247438,31.9421313 L18.0247438,0.162438423 L15.3524684,0.159991447 Z" id="Fill-15" fill="url(#linearGradient-3)" mask="url(#mask-2)"/></g><path d="M30.8975981,16.4025663 C30.8975981,9.29829775 25.1166744,3.51845606 18.0101912,3.51474733 L18.0101912,5.05675272 C24.2660899,5.06004937 29.3551663,10.1480078 29.3551663,16.4025663 C29.3551663,22.6554765 24.2660899,27.7442591 18.0101912,27.7475557 L18.0101912,29.2895611 C25.1166744,29.2858524 30.8975981,23.5060107 30.8975981,16.4025663" id="Fill-18" fill="url(#linearGradient-3)"/><path d="M21.1223523,16.1413204 L20.5078103,19.9169016 L23.5171615,19.9169016 L22.9034476,16.1413204 C23.5879746,15.8129914 24.0633751,15.1234598 24.0633751,14.3223207 C24.0633751,13.2070571 23.1457031,12.3016157 22.013107,12.3016157 C20.8813392,12.3016157 19.962839,13.2070571 19.962839,14.3223207 C19.9615966,15.1242715 20.4361689,15.8129914 21.1223523,16.1413204" id="Fill-20" fill="#28B2FA"/><path d="M20.4030029,7.59328735 C21.1570559,7.78555065 21.4476403,6.65965679 20.6939732,6.46585538 C19.9403061,6.27282303 19.6497218,7.39948595 20.4030029,7.59328735" id="Fill-22" fill="#28B2FA"/><path d="M23.6929994,9.22731712 C24.2815847,9.72082302 25.0221737,8.83920917 24.4335883,8.34608377 C23.845003,7.85333887 23.104795,8.73457222 23.6929994,9.22731712" id="Fill-24" fill="#28B2FA"/><path d="M25.8879253,12.5565081 C26.2270367,13.2515104 27.2642288,12.7406147 26.9251174,12.0456123 C26.5867697,11.3525277 25.5488139,11.8626564 25.8879253,12.5565081" id="Fill-26" fill="#28B2FA"/><path d="M20.4030029,25.2111863 C21.1570559,25.0180547 21.4476403,26.1452967 20.6939732,26.3384282 C19.9403061,26.5315598 19.6497218,25.4050873 20.4030029,25.2111863" id="Fill-28" fill="#28B2FA"/><path d="M23.6929994,22.9911293 C24.2815847,22.4977322 25.0221737,23.3795322 24.4335883,23.8721685 C23.845003,24.3655656 23.104795,23.4837656 23.6929994,22.9911293" id="Fill-30" fill="#28B2FA"/><path d="M25.8879253,20.247387 C26.2270367,19.5530363 27.2642288,20.0637349 26.9251174,20.7588524 C26.5867697,21.4516695 25.5488139,20.9417377 25.8879253,20.247387" id="Fill-32" fill="#28B2FA"/><path d="M26.9923312,16.4018638 C26.9923312,17.183306 28.1639137,17.183306 28.1639137,16.4018638 C28.1639137,15.6211961 26.9923312,15.6211961 26.9923312,16.4018638" id="Fill-34" fill="#28B2FA"/></g></g></g></g></g></svg>