<svg width="30" height="30" viewBox="0 0 30 30" version="1.1" xmlns="http://www.w3.org/2000/svg" xmlns:xlink="http://www.w3.org/1999/xlink"><title>icons8-ios-logo</title><desc>Created with Sketch.</desc><g id="Browser-extension" stroke="none" stroke-width="1" fill="none" fill-rule="evenodd"><g id="4.-Safe-Overview---INIT-state" transform="translate(-275.000000, -294.000000)"><g id="Group-2" transform="translate(240.000000, 294.000000)"><g id="icons8-ios-logo" transform="translate(35.000000, 0.000000)"><circle id="Oval" fill="#28B2FA" cx="15" cy="15" r="15"/><path d="M6.57918701,10.3058594 C6.15936164,10.3058594 5.8430542,10.645171 5.8430542,11.0419922 C5.8430542,11.4388134 6.15936164,11.7321167 6.57918701,11.7321167 C6.99901239,11.7321167 7.36132813,11.4388134 7.36132813,11.0419922 C7.36132813,10.645171 6.99901239,10.3058594 6.57918701,10.3058594 Z" id="Path" fill="#FFF"/><path d="M12.698291,10.5359009 C10.4726391,10.5359009 9.06363525,12.1001831 9.06363525,14.5846313 C9.06363525,17.0633289 10.4438843,18.6333618 12.698291,18.6333618 C14.9469471,18.6333618 16.2869385,17.0633289 16.2869385,14.5846313 C16.2869385,12.1059338 14.9354443,10.5359009 12.698291,10.5359009 Z" id="Path" fill="#FFF"/><path d="M12.698291,11.6861084 C14.1705566,11.6861084 15.0907227,12.7960583 15.0907227,14.5846313 C15.0907227,16.3617016 14.1705566,17.5291626 12.698291,17.5291626 C11.2087719,17.5291626 10.3518677,16.3617016 10.3518677,14.5846313 C10.3518677,12.7960583 11.2375282,11.6861084 12.698291,11.6861084 Z" id="Path" fill="#28B2FA"/><path d="M19.9676025,10.5359009 C18.6333618,10.7256848 17.8052124,11.5883411 17.8052124,12.7903076 C17.8052124,13.9232617 18.4378273,14.624889 19.8295776,14.9526978 L20.795752,15.1827393 C21.8136852,15.4242836 22.2680176,15.79235 22.2680176,16.3789551 C22.2680176,17.0633289 21.5721424,17.5291626 20.6117187,17.5291626 C19.5822827,17.5291626 18.8749061,17.0633289 18.7713867,16.3329468 L17.6211792,16.3329468 C17.7074451,17.7074451 18.8116443,18.5873535 20.5197021,18.5873535 C22.3427807,18.5873535 23.5102417,17.6671875 23.5102417,16.1949219 C23.5102417,15.0389637 22.83162,14.3948475 21.255835,14.0325317 L20.4276855,13.8484985 C19.4212536,13.6127064 19.0014282,13.24464 19.0014282,12.698291 C19.0014282,12.0024158 19.6225403,11.5480835 20.5657104,11.5480835 C21.4628723,11.5480835 22.0667309,12.0369213 22.176001,12.7442993 L23.3722168,12.7442993 C23.3032043,11.4445656 22.1299927,10.5359009 20.5657104,10.5359009 C20.3529224,10.5359009 20.1573864,10.5071461 19.9676025,10.5359009 Z" id="Path" fill="#FFF"/><polygon id="Path" fill="#FFF" points="5.9350708 13.2043823 5.9350708 18.5873535 7.26931152 18.5873535 7.26931152 13.2043823"/></g></g></g></g></svg>