<svg width="12" height="16" viewBox="0 0 12 16" version="1.1" xmlns="http://www.w3.org/2000/svg" xmlns:xlink="http://www.w3.org/1999/xlink"><title>locked</title><desc>Created with Sketch.</desc><g id="Symbols" stroke="none" stroke-width="1" fill="none" fill-rule="evenodd"><g id="#header-with-locks-locked" transform="translate(-343.000000, -21.000000)" fill="#A2A8BA"><g id="#header-with-locks"><path d="M344.659761,37 C343.742697,37 343,36.2453063 343,35.3134294 L343,29.8667394 C343,29.0537406 343.566127,28.3752943 344.318768,28.2160533 L344.318768,25.7568468 C344.318768,23.1339209 346.418853,21 349,21 C351.581147,21 353.681232,23.134007 353.681232,25.7568468 L353.681232,28.2160533 C354.433873,28.376411 355,29.0537406 355,29.8667394 L355,35.3134294 C355,36.2453063 354.257303,37 353.340239,37 L344.659761,37 Z M347.531444,31.9925647 C347.531444,32.5454154 347.828308,33.0264971 348.26753,33.284406 L348.26753,34.9440489 L349.733063,34.9440489 L349.733063,33.284406 C350.172286,33.0264856 350.46915,32.5442958 350.46915,31.9925647 C350.46915,31.1683413 349.811432,30.5 349.000311,30.5 C348.189161,30.5 347.531444,31.1683413 347.531444,31.9925647 Z M346.761145,25.7569042 L346.761145,28.1802262 L351.238404,28.1802262 L351.238403,25.7569042 C351.239506,24.5020669 350.235258,23.4815984 349.000367,23.4815984 C347.765392,23.4815984 346.761145,24.5020669 346.761145,25.7569042 Z" id="locked"/></g></g></g></svg>