<svg width="82" height="79" viewBox="0 0 82 79" xmlns="http://www.w3.org/2000/svg"><g id="Browser-extension" fill="none" fillRule="evenodd"><g id="10.-Password-unlock-screen" transform="translate(-303 -270)" fill="#E4E8F1" fillRule="nonzero"><g id="#container" transform="translate(159 82)"><g id="browser-extension-door-hole-unlock" transform="translate(120 163)"><g transform="translate(23 25)" id="Group-4"><g id="Group-2" transform="translate(48.223)"><path d="M1.87221001,4.89742678 C5.07778181,5.7259438 6.31315987,0.920051916 3.10758807,0.0940007204 C-0.0930520897,-0.727118827 -1.3333618,4.07877306 1.87221001,4.89742678" id="Shape"/><path d="M15.9213998,12.4247085 C18.4562674,14.5453176 21.6421126,10.7454821 19.107245,8.62487302 C16.5822408,6.49440068 13.3889981,10.2991678 15.9213998,12.4247085" id="Shape"/><path d="M25.2793903,24.5867981 C26.7366926,27.5556507 31.1899715,25.3758619 29.7351351,22.4070093 C28.2827645,19.4356908 23.8245539,21.6228771 25.2793903,24.5867981" id="Shape"/><path d="M1.87221001,74.0696739 C5.07778181,73.2436227 6.31315987,78.056912 3.10758807,78.8804974 C-0.0930520897,79.6991511 -1.3333618,74.8932592 1.87221001,74.0696739" id="Shape"/><path d="M15.9213998,66.6017246 C18.4562674,64.4786498 21.6421126,68.2809511 19.107245,70.3966285 C16.5822408,72.5320325 13.3889981,68.7272653 15.9213998,66.6017246" id="Shape"/><path d="M25.2793903,55.3937186 C26.7366926,52.4248659 31.1899715,54.6120522 29.7351351,57.5833707 C28.2827645,60.5448259 23.8245539,58.365037 25.2793903,55.3937186" id="Shape"/><path d="M28.9900984,40.4670285 C28.9900984,43.7810966 33.9464056,43.7810966 33.9464056,40.4670285 C33.9464056,37.1603579 28.9900984,37.1603579 28.9900984,40.4670285" id="Shape"/></g><g id="Group-3" transform="matrix(-1 0 0 1 33.989 0)"><path d="M1.87221001,4.89742678 C5.07778181,5.7259438 6.31315987,0.920051916 3.10758807,0.0940007204 C-0.0930520897,-0.727118827 -1.3333618,4.07877306 1.87221001,4.89742678" id="Shape-Copy" transform="matrix(-1 0 0 1 4.981 0)"/><path d="M15.9213998,12.4247085 C18.4562674,14.5453176 21.6421126,10.7454821 19.107245,8.62487302 C16.5822408,6.49440068 13.3889981,10.2991678 15.9213998,12.4247085" id="Shape-Copy-2" transform="matrix(-1 0 0 1 35.031 0)"/><path d="M25.2793903,24.5867981 C26.7366926,27.5556507 31.1899715,25.3758619 29.7351351,22.4070093 C28.2827645,19.4356908 23.8245539,21.6228771 25.2793903,24.5867981" id="Shape-Copy-3" transform="matrix(-1 0 0 1 55.015 0)"/><path d="M1.87221001,74.0696739 C5.07778181,73.2436227 6.31315987,78.056912 3.10758807,78.8804974 C-0.0930520897,79.6991511 -1.3333618,74.8932592 1.87221001,74.0696739" id="Shape-Copy-4" transform="matrix(-1 0 0 1 4.981 0)"/><path d="M15.9213998,66.6017246 C18.4562674,64.4786498 21.6421126,68.2809511 19.107245,70.3966285 C16.5822408,72.5320325 13.3889981,68.7272653 15.9213998,66.6017246" id="Shape-Copy-5" transform="matrix(-1 0 0 1 35.031 0)"/><path d="M25.2793903,55.3937186 C26.7366926,52.4248659 31.1899715,54.6120522 29.7351351,57.5833707 C28.2827645,60.5448259 23.8245539,58.365037 25.2793903,55.3937186" id="Shape-Copy-6" transform="matrix(-1 0 0 1 55.015 0)"/><path d="M27.9904399,40.4670285 C27.9904399,43.7810966 32.9467471,43.7810966 32.9467471,40.4670285 C32.9467471,37.1603579 27.9904399,37.1603579 27.9904399,40.4670285" id="Shape-Copy-7" transform="matrix(-1 0 0 1 60.937 0)"/></g></g></g></g></g></g></svg>