<svg width="12" height="16" viewBox="0 0 12 16" version="1.1" xmlns="http://www.w3.org/2000/svg" xmlns:xlink="http://www.w3.org/1999/xlink"><title>locked</title><desc>Created with Sketch.</desc><g id="Symbols" stroke="none" stroke-width="1" fill="none" fill-rule="evenodd"><g id="#drawer-menu" transform="translate(-25.000000, -71.000000)" fill="#65707E"><g id="locked"><path d="M26.6597608,87 C25.7426971,87 25,86.2453063 25,85.3134294 L25,79.8667394 C25,79.0537406 25.5661268,78.3752943 26.3187682,78.2160533 L26.3187682,75.7568468 C26.3187682,73.1339209 28.418853,71 31,71 C33.581147,71 35.6812318,73.134007 35.6812318,75.7568468 L35.6812318,78.2160533 C36.4338732,78.376411 37,79.0537406 37,79.8667394 L37,85.3134294 C37,86.2453063 36.2573029,87 35.3402392,87 L26.6597608,87 Z M29.5314436,81.9925647 C29.5314436,82.5454154 29.8283078,83.0264971 30.2675299,83.284406 L30.2675299,84.9440489 L31.7330634,84.9440489 L31.7330634,83.284406 C32.1722855,83.0264856 32.4691496,82.5442958 32.4691496,81.9925647 C32.4691496,81.1683413 31.8114323,80.5 31.0003108,80.5 C30.1891609,80.5 29.5314436,81.1683413 29.5314436,81.9925647 Z M28.7611451,75.7569042 L28.7611451,78.1802262 L33.2384038,78.1802262 L33.2384029,75.7569042 C33.2395064,74.5020669 32.2352576,73.4815984 31.0003673,73.4815984 C29.7653922,73.4815984 28.7611451,74.5020669 28.7611451,75.7569042 Z"/></g></g></g></svg>