<svg width="16" height="16" viewBox="0 0 16 16" version="1.1" xmlns="http://www.w3.org/2000/svg" xmlns:xlink="http://www.w3.org/1999/xlink"><title>device_password</title><desc>Created with Sketch.</desc><g id="Symbols" stroke="none" stroke-width="1" fill="none" fill-rule="evenodd"><g id="#drawer-menu" transform="translate(-24.000000, -117.000000)" fill="#65707E" fill-rule="nonzero"><g id="device_password"><path d="M36,121 L40,121 L40,129 L36,129 L36,130.6 C36,131.041828 36.3581722,131.4 36.8,131.4 L38.4,131.4 L38.4,133 L36.4,133 C35.96,133 35.2,132.64 35.2,132.2 C35.2,132.64 34.44,133 34,133 L32,133 L32,131.4 L33.6,131.4 C34.0418278,131.4 34.4,131.041828 34.4,130.6 L34.4,119.4 C34.4,118.958172 34.0418278,118.6 33.6,118.6 L32,118.6 L32,117 L34,117 C34.44,117 35.2,117.36 35.2,117.8 C35.2,117.36 35.96,117 36.4,117 L38.4,117 L38.4,118.6 L36.8,118.6 C36.3581722,118.6 36,118.958172 36,119.4 L36,121 Z M24,121 L33,121 L33,122.6 L25.6363636,122.6 L25.6363636,127.4 L33,127.4 L33,129 L24,129 L24,121 Z M38,128 L38,123 L36,123 L36,128 L38,128 Z M29,125 C29,124.447715 28.5522847,124 28,124 C27.4477153,124 27,124.447715 27,125 C27,125.552285 27.4477153,126 28,126 C28.5522847,126 29,125.552285 29,125 Z M33,124.259729 C32.5136585,123.886337 31.7562414,123.919676 31.309764,124.333073 C30.8632866,124.733136 30.9031506,125.366568 31.4054377,125.739959 C31.8439424,126.08668 32.5455498,126.08668 33,125.739959 L33,124.259729 Z"/></g></g></g></svg>