<svg width="30" height="55" viewBox="0 0 30 55" version="1.1" xmlns="http://www.w3.org/2000/svg" xmlns:xlink="http://www.w3.org/1999/xlink"><title>np_mobile_1388528_000000</title><desc>Created with Sketch.</desc><defs><linearGradient x1="50%" y1="100%" x2="50%" y2="4.486%" id="linearGradient-1"><stop stop-color="#34AAFD" offset="0%"/><stop stop-color="#00CFEE" offset="100%"/></linearGradient></defs><g id="Browser-extension" stroke="none" stroke-width="1" fill="none" fill-rule="evenodd"><g id="12.-Transaction-dApp---Get-confirmation" transform="translate(-721.000000, -572.000000)"><g id="Transaction-2" transform="translate(633.000000, 136.000000)"><g id="np_mobile_1388528_000000" transform="translate(88.000000, 436.000000)"><path d="M25.8310699,0 L4.16882017,0 C1.86640201,0 0,1.8669694 0,4.1679425 L0,50.8320025 C0,51.9362892 0.44029383,52.997621 1.22210981,53.7796637 C2.00392579,54.5617063 3.06277973,55 4.16887516,55 L25.8311248,55 C26.9372203,55 27.9960852,54.5617173 28.7778902,53.7796637 C29.5596952,52.99761 30,51.9362892 30,50.8320025 L30,4.1679425 C30,1.8669694 28.133598,3.41947666e-15 25.8311798,3.41947666e-15 L25.8310699,0 Z M1.67258652,9.2014724 L28.3267537,9.2014724 L28.3267537,44.4789166 L1.67258652,44.4789166 L1.67258652,9.2014724 Z M4.16832532,1.64999505 L25.830575,1.64999505 C27.2137304,1.64999505 28.3327468,2.76935169 28.3327468,4.15292754 L28.3327468,7.5345374 L1.67247911,7.5345374 L1.67253153,4.1679425 C1.6682357,3.50409449 1.92811507,2.86384141 2.39632933,2.39117283 C2.86454359,1.91850424 3.50242476,1.65208504 4.16827034,1.64994005 L4.16832532,1.64999505 Z M25.830575,53.34984 L4.16832532,53.34984 C2.78516995,53.34984 1.66615349,52.2304833 1.66615349,50.8469075 L1.66615349,46.1439816 L28.3264212,46.1439816 L28.3263688,50.8318375 C28.3306646,51.4956855 28.0707853,52.1359386 27.602571,52.6086072 C27.1343568,53.0812758 26.4964756,53.347695 25.83063,53.34984 L25.830575,53.34984 Z" id="Shape" fill="url(#linearGradient-1)" fill-rule="nonzero"/><path d="M17.1428571,50.3562884 C17.1428571,53.690761 12.1428571,53.690761 12.1428571,50.3562884 C12.1428571,47.0240944 17.1428571,47.0240944 17.1428571,50.3562884" id="Shape" fill="#28B2FA" fill-rule="nonzero"/><path d="M11.6887186,4.99099151 L18.3112814,4.99099151 C18.5548869,5.0240319 18.802797,4.96529385 18.9903701,4.82946187 C19.177921,4.69363131 19.2857143,4.49538805 19.2857143,4.28615842 C19.2857143,4.07506797 19.1779266,3.8768294 18.9903701,3.74097535 C18.8028191,3.60514478 18.5549034,3.54640673 18.3112814,3.58128304 L11.6887186,3.58128304 C11.4451131,3.54640767 11.197203,3.60514572 11.0096299,3.74097535 C10.822079,3.87680591 10.7142857,4.07504917 10.7142857,4.28615842 C10.7142857,4.49541154 10.8220734,4.69365481 11.0096299,4.82946187 C11.1971809,4.96529244 11.4450966,5.02403049 11.6887186,4.99099151 Z" id="Shape" fill="#03CCEF" fill-rule="nonzero"/><path d="M10.7811953,19.887443 L10.7811852,19.8874531 C10.6128234,20.005175 10.3602824,19.9209941 10.2754433,19.7526323 C10.1577213,19.567165 10.2419022,19.3481633 10.410264,19.2304414 C10.6121635,19.0956173 10.8311685,18.9949976 11.0501735,18.8937179 C12.161698,18.3886325 13.3565952,18.1025522 14.5857709,18.0183713 C16.4884274,17.9006527 18.373911,18.3550948 20.0582023,19.1969038 C20.2436629,19.2810846 20.2943028,19.5507329 20.1930231,19.7190947 C20.0917366,19.9045553 19.8562995,19.9551951 19.6708322,19.8539154 C18.7113384,19.3659356 17.6505581,19.0121065 16.5733121,18.8437447 C15.1757409,18.6411718 13.7610642,18.7595638 12.4312755,19.1633627 C12.1951649,19.2304381 11.9597278,19.3146189 11.7407228,19.3987998 C11.6900829,19.4158987 11.6565419,19.4323409 11.6230009,19.4494397 C11.6230009,19.4494397 11.53882,19.5000795 11.5894598,19.4665385 C11.6394431,19.4500963 11.5052789,19.5000795 11.4881801,19.5171784 C11.404006,19.5678182 11.3369239,19.6013593 11.252743,19.6349003 C11.0843812,19.7190812 10.9324583,19.7861633 10.7811953,19.887443 Z M9.92221351,31.0156518 L9.9217926,31.0156316 C10.0059735,31.2182045 9.83760834,31.4536416 9.73501204,31.4746868 C9.51600703,31.5417621 9.34764525,31.406938 9.26346436,31.2050386 C9.26346436,31.1708409 9.24702214,31.1372999 9.22992332,31.1037588 C8.99381276,30.4303791 8.85899538,29.7233943 8.79191331,29.0164095 C8.67419475,27.837877 8.80901886,26.6422389 9.26346099,25.5649929 C9.85272723,24.1674217 11.0313271,23.1066078 12.3953269,22.4838039 C14.3649914,21.5742462 16.6722213,21.7090703 18.5912089,22.719241 C19.3316977,23.1066078 19.9716071,23.6623364 20.4766925,24.318678 C20.9311346,24.8915794 21.3356069,25.5650266 21.5710441,26.2720114 C21.9248732,27.3491901 22.0090541,28.6796859 21.2514261,29.5885701 C20.6286558,30.329096 19.5171987,30.5652032 18.6083144,30.2955549 C18.0861235,30.1442987 17.6481135,29.8411128 17.3284955,29.4202084 C17.2443112,29.3189219 17.1601303,29.1841012 17.1094905,29.0663792 C17.0588506,28.9650928 17.0082108,28.830272 16.9746697,28.7125501 C16.9582275,28.6619103 16.9582275,28.5948282 16.9411287,28.5441883 C16.9411287,28.4935485 16.9240299,28.4600074 16.9240299,28.4093676 C16.9240299,28.4258098 16.9411287,28.4935485 16.9240299,28.3922688 C16.8740601,28.004902 16.8904922,27.6510728 16.6885928,27.3314548 C16.520231,27.0618066 16.2505827,26.8599105 15.9645024,26.7421886 C15.1905096,26.4225706 14.2645198,26.5567213 13.7929721,27.3314548 C13.5746338,27.7017161 13.5068951,28.1226205 13.557535,28.543525 C13.557535,28.5935082 13.5746338,28.6441481 13.5746338,28.6947879 C13.5917326,28.7112302 13.5917326,28.728329 13.5917326,28.76187 C13.6088315,28.862483 13.6252737,28.9637661 13.6423725,29.081488 C13.693009,29.3340307 13.7600911,29.5865734 13.844272,29.8220105 C13.8607142,29.8890892 13.877813,29.9568279 13.911354,30.0239099 C13.911354,30.0410088 13.9277962,30.0745498 13.9448951,30.1080908 C13.9790927,30.1751729 13.9284528,30.0745498 13.9619939,30.1416319 C14.0290726,30.2757825 14.0968113,30.41061 14.1638933,30.5454308 C14.5006169,31.134697 14.8708781,31.6055712 15.4095012,32.0435813 C16.0494106,32.5828777 16.874114,32.9695717 17.6823852,33.23922 C18.1539329,33.3904762 17.9520335,34.1310054 17.4804858,33.9797424 C17.0260436,33.8284862 16.5716015,33.6601244 16.1506971,33.4411194 C14.8380813,32.784845 13.7772673,31.7075985 13.2215388,30.3435987 C12.733559,29.1650662 12.4810163,27.6326709 13.3899005,26.5889625 C14.5856059,25.2085979 17.2286839,25.7806913 17.5989451,27.6326709 C17.6160439,27.7839271 17.649585,27.9187546 17.649585,28.0535754 C17.6666838,28.1377562 17.6331428,28.2554748 17.6666838,28.3396557 C17.5996017,28.1883961 17.649585,28.3232135 17.6666838,28.3902956 C17.6666838,28.4409354 17.683126,28.5080175 17.7002248,28.5586573 C17.7337659,28.6592771 17.7508647,28.6934747 17.7844057,28.7605568 C17.9527675,29.0808482 18.1888781,29.3162854 18.5084961,29.4846471 C18.9294005,29.7036488 19.4344859,29.7371898 19.8724959,29.6023691 C20.0743954,29.5517258 20.2762948,29.4675416 20.4446566,29.3327208 C20.4781976,29.3162786 20.5288375,29.2656388 20.5794773,29.2149989 L20.6636582,29.130818 L20.6971993,29.0801782 C20.8990954,28.8112034 20.9661774,28.625736 21.0168173,28.2890125 L21.0168173,27.8852035 C21.0168173,27.7339472 21.0168173,27.5991198 20.9997185,27.464299 C20.9997185,27.4478568 20.9826196,27.2959372 20.9997185,27.3972169 C20.9997185,27.3630193 20.9826196,27.3294783 20.9826196,27.2959372 C20.9661774,27.2281918 20.9661774,27.1611097 20.9490786,27.1104699 C20.9326364,27.0091834 20.9155376,26.9085637 20.8819965,26.807284 C20.8484555,26.688892 20.8149145,26.5711768 20.7642746,26.4534549 C20.7136347,26.3350629 20.6465527,26.2173477 20.5959128,26.0996257 C20.4946264,25.8806207 20.3769112,25.6616157 20.2591893,25.4597163 C20.0401842,25.0887816 19.8047471,24.7356259 19.5015612,24.43244 C18.9465734,23.8431738 18.2560208,23.4051638 17.4983927,23.1190834 C16.5388989,22.7488188 15.5123298,22.5968993 14.4850535,22.698179 C13.5427326,22.7823599 12.6331076,23.136189 11.8419419,23.6412743 C11.5216504,23.8431738 11.2526757,24.0621788 10.9830274,24.3147215 C10.7469169,24.5337265 10.5450174,24.769837 10.3766556,25.0052742 C10.0063944,25.5274651 9.80449495,26.0154449 9.63613316,26.6218167 C9.58549331,26.7566408 9.56839448,26.9085637 9.53485345,27.0598267 C9.51841124,27.1269054 9.51841124,27.194644 9.50131241,27.2617261 C9.50131241,27.2781683 9.48421359,27.379448 9.50131241,27.2952672 C9.48421359,27.3294648 9.48421359,27.3630058 9.48421359,27.3965469 C9.45067256,27.6655216 9.43357373,27.951602 9.43357373,28.2212502 C9.43357373,28.4908985 9.43357373,28.7434411 9.46711477,28.9959838 C9.46711477,29.0630625 9.48421359,29.1308012 9.48421359,29.1978833 C9.50131241,29.2314243 9.50131241,29.2485231 9.50131241,29.2820641 C9.51841124,29.3826771 9.53485345,29.5004024 9.55195227,29.6016822 C9.63613316,30.0896619 9.73674616,30.5612096 9.92221351,31.0156518 Z M8.71017703,23.9788027 L8.71027804,23.9788397 C8.44063015,24.3997442 7.78428857,24.0123774 8.07102553,23.5921295 C8.4241812,23.036401 8.91283411,22.5484212 9.4008139,22.1104111 C10.3774806,21.2686022 11.5224417,20.6122607 12.7680496,20.2584315 C13.7275434,19.98945 14.7548196,19.9217113 15.7478848,19.9723512 C16.7915595,20.0229944 17.8188694,20.2584315 18.7783969,20.679336 C20.209472,21.3021062 21.4051101,22.3294498 22.3139943,23.5921632 C22.4317162,23.760525 22.3475353,24.0130744 22.1791736,24.1143541 C21.9937062,24.232076 21.7747046,24.1478951 21.6569827,23.9795334 C20.7309928,22.7167526 19.4347081,21.6894764 17.9865274,21.184391 C17.4985476,21.0160292 16.9934623,20.8983107 16.4883769,20.8141298 C16.4712781,20.797031 16.4377371,20.797031 16.404196,20.797031 C16.3029163,20.7799322 16.4883769,20.8141298 16.3870972,20.797031 C16.337114,20.797031 16.2864741,20.7799322 16.2358343,20.7799322 C16.1516534,20.7634899 16.0503669,20.7463911 15.966186,20.7463911 C15.8142563,20.7463911 15.6459013,20.7292923 15.4946383,20.7292923 C15.1914524,20.7121935 14.871161,20.7121935 14.551543,20.7292923 C13.8274526,20.7799355 13.1204678,20.9318652 12.4470207,21.1673023 C11.8741866,21.3692018 11.3191314,21.6552821 10.7969405,21.9920057 C10.3596039,22.278086 10.0228804,22.5477342 9.63551359,22.9179955 C9.38297092,23.1705382 9.13042824,23.4395129 8.91142323,23.7091612 C8.89498102,23.7427022 8.86143999,23.759801 8.84434117,23.7933421 C8.82789895,23.8275397 8.81080013,23.8610807 8.7772591,23.8946218 C8.74371806,23.9281628 8.72727585,23.9452616 8.71017703,23.9788027 Z M14.7712012,28.1036664 L14.7712181,28.1036142 C14.7883236,27.614966 15.5459533,27.614966 15.5446384,28.085857 L15.5446384,28.3890429 C15.5446384,28.4061418 15.5617372,28.5238637 15.5446384,28.4396828 C15.5446384,28.3555019 15.5617372,28.4732238 15.5617372,28.4903227 C15.5952783,28.6415789 15.6288193,28.7935018 15.6794592,28.9447648 C15.7130002,29.0289457 15.730099,29.1131266 15.7636401,29.1973075 C15.7807389,29.2479473 15.7971811,29.2814884 15.8142799,29.3321282 C15.8313787,29.3485704 15.847821,29.3992103 15.8142799,29.3150294 C15.8142799,29.3321282 15.8313787,29.3485704 15.8313787,29.3656692 C15.9155596,29.5511366 15.9997473,29.7194984 16.101027,29.8878601 C16.1687724,29.972041 16.2194122,30.0733275 16.2864943,30.1575084 C16.2864943,30.1746072 16.387774,30.2923291 16.3371342,30.2416893 C16.3713318,30.2752303 16.4048728,30.3258702 16.4384139,30.3594112 C16.573238,30.527773 16.7415998,30.6961381 16.9099616,30.8309589 C16.9099616,30.8474011 16.9264038,30.8474011 16.9435026,30.8644999 C16.9599448,30.8815987 16.9770436,30.8980409 17.0105847,30.9151398 C17.0612245,30.9322386 17.0947656,30.9657796 17.1454054,30.9993207 C17.2466919,31.0499605 17.3473116,31.1170426 17.4485913,31.1676824 C17.6504908,31.2682988 17.8352847,31.3360375 18.1049329,31.4031196 C18.7105639,31.5543825 19.3675789,31.5037427 20.0239205,31.4366606 C20.2429255,31.4202285 20.4112873,31.6221279 20.4112873,31.8240274 C20.4112873,32.0430324 20.2258199,32.1942954 20.0239205,32.2113942 C19.2156492,32.2955717 18.4415891,32.3291094 17.6668555,32.0936723 C16.6738241,31.7912271 15.8655528,31.0835689 15.3604675,30.1746846 C15.0066383,29.5518471 14.7541024,28.8277567 14.7712012,28.1036664 Z M19.6871969,28.1371703 L19.6872003,28.1372815 C19.6872003,28.6423702 18.9131267,28.6423702 18.8795857,28.1714791 C18.8795857,28.0537606 18.8795857,27.9189331 18.8624868,27.7841123 C18.8624868,27.7505713 18.845388,27.6157505 18.8624868,27.7505713 C18.8624868,27.6999314 18.845388,27.6663904 18.845388,27.6157505 C18.811847,27.3967455 18.7441083,27.1948461 18.6770262,26.9929466 C18.660584,26.9423068 18.627043,26.8752247 18.6099442,26.8245848 C18.5757465,26.740404 18.6263864,26.8752247 18.5928453,26.7910438 C18.5928453,26.7575028 18.5764031,26.740404 18.5593043,26.7068629 C18.5086644,26.5891444 18.4580246,26.4714191 18.3909425,26.3701394 C18.2225807,26.084059 18.1048622,25.9328028 17.8858572,25.7137978 C17.4820583,25.2928933 16.9769729,24.9903809 16.3877067,24.8049135 C15.596541,24.5523776 14.7547321,24.5181665 13.9464608,24.7878147 C13.5933051,24.9055333 13.2901192,25.073895 12.9869334,25.2757945 C12.7679283,25.4441563 12.5995666,25.5618748 12.3805616,25.7808798 C11.943225,26.2182164 11.6400357,26.7910505 11.505215,27.4138545 C11.4374763,27.7341459 11.4039353,28.0537639 11.4039353,28.3904875 C11.4039353,28.5424172 11.4203775,28.7107722 11.4374763,28.8620352 C11.4374763,28.912675 11.4545751,28.9797571 11.4545751,29.030397 C11.4716739,29.1316767 11.4374763,28.9462161 11.4545751,29.0474958 C11.4716739,29.063938 11.4716739,29.097479 11.4716739,29.1145778 C11.4881161,29.2158643 11.505215,29.3335795 11.538756,29.4513014 C11.8419756,30.8823766 12.6167428,32.1450899 13.6604512,33.1552601 C14.0142803,33.4919837 13.4756573,34.0306067 13.1218282,33.6938832 C11.876254,32.4981783 10.9838019,30.9322453 10.7312592,29.2151235 C10.5964351,28.2728026 10.6635104,27.2961022 11.0508772,26.4036501 C11.6564746,25.0395829 13.1046889,24.0465178 14.5693018,23.8610504 C16.0845578,23.6584102 17.768142,24.2313117 18.7276695,25.4433818 C19.3333678,26.2010098 19.720738,27.1605373 19.6871969,28.1371703 Z" id="Combined-Shape" fill="url(#linearGradient-1)"/></g></g></g></g></svg>