<?xml version="1.0" encoding="UTF-8"?>
<svg width="370px" height="550px" viewBox="0 0 370 550" version="1.1" xmlns="http://www.w3.org/2000/svg" xmlns:xlink="http://www.w3.org/1999/xlink">
    <!-- Generator: Sketch 55.2 (78181) - https://sketchapp.com -->
    <title>mountain</title>
    <desc>Created with Sketch.</desc>
    <defs>
        <linearGradient x1="50%" y1="0%" x2="50%" y2="100%" id="linearGradient-1">
            <stop stop-color="#B0D5CF" offset="0%"></stop>
            <stop stop-color="#6EC5B6" offset="100%"></stop>
        </linearGradient>
        <rect id="path-2" x="0" y="0" width="370" height="350"></rect>
    </defs>
    <g id="Authenticator-New-fonts" stroke="none" stroke-width="1" fill="none" fill-rule="evenodd">
        <g id="Start">
            <g id="Mountain">
                <rect id="Rectangle-Copy" fill="url(#linearGradient-1)" x="0" y="0" width="370" height="550"></rect>
                <g id="Group-Copy" stroke-width="1" transform="translate(0.000000, 200.000000)">
                    <mask id="mask-3" fill="white">
                        <use xlink:href="#path-2"></use>
                    </mask>
                    <g id="Mask"></g>
                    <g opacity="0.311546689" mask="url(#mask-3)">
                        <g transform="translate(-3.000000, -4.000000)">
                            <polygon id="Fill-1" fill="#AFE7DE" points="346.274488 66.5774557 314.703808 96.213617 269.086755 79.2715282 252.426321 90.3788416 233.118168 58.0939171 205.519066 102.560653 174.352274 69.7509738 142.770375 93.0276047 121.723254 75.036006 41.8990208 122.663766 0.00672462981 393.387351 375.006725 393.387351 375.006725 45.3873505"></polygon>
                            <polygon id="Fill-2" fill="#5FCAB8" points="232.014414 126.878686 205.513995 101.936931 175.804804 70.221336 178.946259 122.458787 142.774646 92.3834377 121.715676 74.3532533 130.926872 102.650626 41.9002742 130.334472 0.00672462981 393.387351 375.006725 393.387351 361.195541 131.286065 314.702003 95.5762829 269.094805 78.5978592 267.277249 113.656551 252.422653 89.7415149 233.113923 57.3873505"></polygon>
                            <path d="M0.1580288,99.4975117 L84.7874949,50.2853545 C84.7874949,50.2853545 167.108171,180.193456 207.030057,175.708265 C240.294559,171.960195 308.583175,66.9392782 308.583175,66.9392782 L374.76474,99.4975117 L374.61904,392.421664 L0.00112077163,392.421664 L0.1580288,99.4975117 Z" id="Fill-3" fill="#3AC4AB"></path>
                            <path d="M0.00560385817,8.81072992e-13 C11.1796971,20.102148 110.199871,196.873616 180.304137,206.406207 C250.408402,215.926304 353.799586,77.2727068 359.941414,68.8020689 C368.705848,75.1488006 374.769223,77.2727068 374.769223,77.2727068 L374.612315,392.422914 L0.00560385817,392.422914 L0.00560385817,8.81072992e-13 Z" id="Fill-6" fill="#05A588"></path>
                            <path d="M374.763619,137.60039 C359.498709,145.546298 271.428474,215.372839 196.516098,218.558699 C121.592515,221.744558 11.8353485,142.360439 -5.68434189e-14,137.60039 L-5.68434189e-14,392.419166 L374.617919,392.419166 L374.763619,137.60039 Z" id="Fill-9" fill="#008C73"></path>
                            <path d="M343.728332,324.955158 L374.616798,301.229875 L291.152934,282.077238 L336.241577,272.944442 L336.23037,272.944442 L272.749864,251.905276 L283.184248,243.33469 L283.17304,243.33469 L226.742189,237.62513 L239.328454,226.51835 C239.328454,226.51835 239.328454,226.505856 239.328454,226.505856 L200.448886,226.505856 L212.732543,220.396502 C205.156127,219.19712 197.882319,218.559948 190.989573,218.559948 C181.070744,218.559948 170.322544,219.89676 159.069997,222.308018 L154.29551,223.407452 C153.914448,223.494907 153.533385,223.594855 153.152323,223.68231 L164.304001,234.451764 L109.531891,238.549654 C109.520683,238.549654 109.520683,238.562147 109.520683,238.562147 L116.334975,245.571038 L74.9897093,255.403475 L91.1288208,265.011027 L46.0513857,272.744544 L46.040178,272.744544 L46.040178,286.849781 L18.379534,292.421911 L46.040178,321.769298 L0.0100869447,328.091043 L0.0100869447,339.210317 L27.7491849,361.473851 L0.0100869447,367.595699 L0.0100869447,392.420415 L374.616798,392.420415 L374.616798,336.486719 L343.728332,324.955158 Z" id="Fill-12" fill="#05A588"></path>
                            <path d="M121.588032,392.425412 C121.588032,392.425412 181.672599,365.326867 175.620432,341.151817 C169.568265,316.976766 77.9900149,314.290649 93.1092243,284.256116 C106.054137,258.531864 146.839016,235.756092 187.45578,236.967968 C215.721641,237.792544 179.173278,224.786741 157.51997,214.179704 C169.568265,213.667467 174.286714,205.946444 180.305257,206.396212 C185.98757,206.84598 199.100598,205.734053 199.100598,205.734053 C199.100598,205.734053 171.238215,218.340061 193.227754,218.44001 C219.296903,218.564945 237.789635,250.473513 209.658267,250.298603 C190.425825,250.198655 104.070371,294.013592 219.050333,303.421247 C325.792623,312.141756 295.419712,367.888048 276.030363,392.425412 L121.588032,392.425412 Z" id="Fill-14" fill="#5FCAB8"></path>
                        </g>
                    </g>
                </g>
            </g>
        </g>
    </g>
</svg>