<svg width="1444" height="836" viewBox="0 0 1444 836" version="1.1" xmlns="http://www.w3.org/2000/svg" xmlns:xlink="http://www.w3.org/1999/xlink"><title>mountain</title><desc>Created with Sketch.</desc><defs><polygon id="path-1" points="0 3.19595987 1445.24363 3.19595987 1445.24363 1186.92165 0 1186.92165"/><polygon id="path-3" points="0 2.11964912 1445.24363 2.11964912 1445.24363 1359.82298 0 1359.82298"/><polygon id="path-5" points="0 2.71183616 1445.24363 2.71183616 1445.24363 884.335689 0 884.335689"/><polygon id="path-7" points="0.100109923 2.47681147 786.690998 2.47681147 786.690998 648.379967 0.100109923 648.379967"/></defs><g id="Browser-extension" stroke="none" stroke-width="1" fill="none" fill-rule="evenodd" opacity=".15"><g id="0.-Post-install" transform="translate(0.000000, -101.000000)"><g id="Container" transform="translate(-2.000000, 0.000000)"><g id="mountain"><g style="mix-blend-mode:luminosity" transform="translate(0.000000, 96.000000)"><polygon id="Fill-1" fill="#FFF" points="1331.79231 231.233675 1210.36723 333.546627 1034.91792 275.057435 970.839658 313.403225 896.577911 201.945945 790.428057 355.458507 670.556393 242.189615 549.088166 322.547553 468.138115 260.435137 161.123396 424.860506 0 1359.47984 1442.30035 1359.47984 1442.30035 158.079051"/><polygon id="Fill-2" fill="#D4D4D4" points="892.332723 441.033041 790.408554 355.078331 676.143016 245.779494 688.225475 425.801107 549.104594 322.154915 468.108969 260.018979 503.536464 357.537878 161.128216 452.942429 0 1359.47984 1442.30035 1359.47984 1389.18068 456.221826 1210.3603 333.158153 1034.94889 274.646814 1027.95832 395.466689 970.825552 313.050274 896.561583 201.55079"/><g id="Group-17"><g id="Group-5" transform="translate(0.000000, 172.901324)"><mask id="mask-2" fill="#fff"><use xlink:href="#path-1"/></mask><path d="M0.583508956,173.460539 L326.959518,3.19595987 C326.959518,3.19595987 644.431613,452.652953 798.391531,437.135059 C926.677056,424.16746 1190.0341,60.8153262 1190.0341,60.8153262 L1445.26524,173.460539 L1444.70334,1186.92165 L-0.0216114428,1186.92165 L0.583508956,173.460539 Z" id="Fill-3" fill="#B4B4B4" mask="url(#mask-2)"/></g><g id="Group-8"><mask id="mask-4" fill="#fff"><use xlink:href="#path-3"/></mask><path d="M-0.00432228856,2.11964912 C43.0888947,71.6692069 424.963089,683.264417 695.322238,716.245344 C965.681388,749.183047 1364.41251,269.468322 1388.09865,240.161548 C1421.89895,262.120016 1445.28253,269.468322 1445.28253,269.468322 L1444.67741,1359.8273 L-0.00432228856,1359.8273 L-0.00432228856,2.11964912 Z" id="Fill-6" fill="#858585" mask="url(#mask-4)"/></g><g id="Group-11" transform="translate(0.000000, 475.478642)"><mask id="mask-6" fill="#fff"><use xlink:href="#path-5"/></mask><path d="M1445.26091,2.71183616 C1386.39134,30.2031467 1046.74591,271.789522 757.844142,282.811982 C468.899152,293.834441 45.6174335,19.1806873 -0.0259337314,2.71183616 L-0.0259337314,884.335689 L1444.69902,884.335689 L1445.26091,2.71183616 Z" id="Fill-9" fill="#424242" mask="url(#mask-6)"/></g><path d="M1325.57242,1126.40187 L1444.6947,1044.31696 L1122.81387,978.05253 L1296.69953,946.454813 L1296.65631,946.454813 L1051.84189,873.663355 L1092.08239,844.010778 L1092.03917,844.010778 L874.411943,824.256802 L922.951243,785.829482 C922.951243,785.829482 922.951243,785.786257 922.951243,785.786257 L773.011053,785.786257 L820.383336,764.64907 C791.164665,760.499438 763.113012,758.294946 736.530937,758.294946 C698.278684,758.294946 656.827936,762.920057 613.432159,771.262546 L595.01921,775.066375 C593.549632,775.368952 592.080054,775.714755 590.610476,776.017332 L633.617247,813.277568 L422.387005,827.455476 C422.343782,827.455476 422.343782,827.498702 422.343782,827.498702 L448.623296,851.748112 L289.174072,885.766448 L351.415027,919.006727 L177.572581,945.763207 L177.529358,945.763207 L177.529358,994.564606 L70.8552764,1013.8431 L177.529358,1115.37941 L0.0129668657,1137.25142 L0.0129668657,1175.72197 L106.989609,1252.74951 L0.0129668657,1273.92992 L0.0129668657,1359.81865 L1444.6947,1359.81865 L1444.6947,1166.29885 L1325.57242,1126.40187 Z" id="Fill-12" fill="#888"/><g id="Group-16" transform="translate(352.462985, 711.443010)"><mask id="mask-8" fill="#fff"><use xlink:href="#path-7"/></mask><path d="M116.418878,648.392934 C116.418878,648.392934 348.136767,554.637191 324.796409,470.996175 C301.456051,387.35516 -51.7181473,378.061713 6.58952538,274.148017 C56.5119582,185.147061 213.800039,106.347282 370.439776,110.540139 C479.447894,113.393011 338.498064,68.3954414 254.991449,31.6971353 C301.456051,29.9248967 319.652886,3.2116421 342.863575,4.76775402 C364.777578,6.32386594 415.348354,2.47681147 415.348354,2.47681147 C415.348354,2.47681147 307.896261,46.0911706 392.699562,46.4369732 C493.235994,46.8692265 564.553756,157.266722 456.064313,156.661568 C381.893841,156.315765 48.8615075,307.907001 492.285091,340.455675 C903.939853,370.626956 786.805833,563.498384 712.030241,648.392934 L116.418878,648.392934 Z" id="Fill-14" fill="#E6E6E6" mask="url(#mask-8)"/></g></g></g></g></g></g></g></svg>