<svg width="170" height="134" viewBox="0 0 170 134" version="1.1" xmlns="http://www.w3.org/2000/svg" xmlns:xlink="http://www.w3.org/1999/xlink"><title>notifications_setting</title><desc>Created with Sketch.</desc><defs><polygon id="path-1" points="0.000255789474 0.000255789474 154.376621 0.000255789474 154.376621 115.105263 0.000255789474 115.105263"/><linearGradient x1="50%" y1="100%" x2="50%" y2="4.486%" id="linearGradient-3"><stop stop-color="#34AAFD" offset="0%"/><stop stop-color="#00CFEE" offset="100%"/></linearGradient></defs><g id="Browser-extension" stroke="none" stroke-width="1" fill="none" fill-rule="evenodd"><g id="0.-Post-install" transform="translate(-646.000000, -462.000000)"><g id="notifications_setting" transform="translate(645.000000, 462.000000)"><g id="Oval" transform="translate(1.336896, 0.000000)"><g id="Group-3"><path d="M44.3867211,13.5414947 C42.3077211,13.5414947 40.6251947,15.2240211 40.6251947,17.3030211 C40.6251947,19.3820211 42.3077211,21.0645474 44.3867211,21.0645474 C46.4657211,21.0645474 48.1482474,19.3820211 48.1482474,17.3030211 C48.1482474,15.2240211 46.4657211,13.5414947 44.3867211,13.5414947" id="Fill-1" fill="#E4E8F1"/><path d="M17.3034474,13.5414947 C15.2244474,13.5414947 13.5419211,15.2240211 13.5419211,17.3030211 C13.5419211,19.3820211 15.2244474,21.0645474 17.3034474,21.0645474 C19.3824474,21.0645474 21.0649737,19.3820211 21.0649737,17.3030211 C21.0649737,15.2240211 19.3824474,13.5414947 17.3034474,13.5414947" id="Fill-3" fill="#E4E8F1"/><g id="Group-7"><mask id="mask-2" fill="#fff"><use xlink:href="#path-1"/></mask><path d="M6.77100316,10.2919453 C6.77100316,8.27632421 8.26353474,6.77100316 10.2586926,6.77100316 L42.4702611,6.77100316 C42.59304,6.81192947 42.7222137,6.85413474 42.8513874,6.88099263 C44.9910663,7.21096105 46.7624084,8.31213474 48.6296716,10.2369505 C50.4956558,12.1617663 52.3347821,14.8437189 54.3516821,17.7187926 C55.8915347,19.9121874 57.5746295,22.2437084 59.5838558,24.3757137 L6.77100316,24.3757137 L6.77100316,10.2919453 Z M144.097977,6.77100316 C146.104645,6.77100316 147.606129,8.27632421 147.606129,10.2919453 L147.606129,24.3757137 L74.7611242,24.3757137 C74.5411453,24.3335084 74.3224453,24.3207189 74.1024663,24.3207189 C68.2384926,23.6799663 64.7853347,19.2381821 60.8385032,13.6479032 C59.21424,11.3509137 57.4480137,8.99253474 55.5219189,6.77100316 L144.097977,6.77100316 Z M119.466729,108.334772 L10.2586926,108.334772 C8.26225579,108.334772 6.77100316,106.833287 6.77100316,104.826619 L6.77100316,31.1464611 L146.251724,31.1464611 L146.251724,80.4703453 C146.715982,80.4473242 147.184077,80.4345347 147.654729,80.4345347 C149.972182,80.4345347 152.221851,80.71974 154.376877,81.2479453 L154.376877,10.4646032 C154.376877,4.72724526 149.620472,0.000255789474 143.85114,0.000255789474 L10.5259926,0.000255789474 C4.75538211,0.000255789474 0.000255789474,4.72724526 0.000255789474,10.4646032 L0.000255789474,104.641172 C0.000255789474,110.377251 4.75538211,115.105519 10.5259926,115.105519 L120.214914,115.105519 C119.725077,113.025951 119.459056,110.859414 119.459056,108.630208 C119.459056,108.531729 119.465451,108.433251 119.466729,108.334772 Z" id="Fill-5" fill="#E4E8F1" mask="url(#mask-2)"/></g><path d="M30.8450842,13.5414947 C28.7660842,13.5414947 27.0835579,15.2240211 27.0835579,17.3030211 C27.0835579,19.3820211 28.7660842,21.0645474 30.8450842,21.0645474 C32.9240842,21.0645474 34.6066105,19.3820211 34.6066105,17.3030211 C34.6066105,15.2240211 32.9240842,13.5414947 30.8450842,13.5414947" id="Fill-8" fill="#E4E8F1"/></g></g><path d="M146.894156,94.0148252 C140.483955,95.663356 135.744832,101.483221 135.744832,108.413145 L135.744832,118.323656 C135.744832,119.236662 135.002832,119.975408 134.096301,119.975408 C132.270372,119.975408 130.789576,121.459424 130.789576,123.278911 C130.789576,125.10484 132.270372,126.582415 134.102743,126.582415 L167.118783,126.582415 C168.947933,126.582415 170.431949,125.098398 170.431949,123.278911 C170.431949,121.452982 168.944712,119.975408 167.125225,119.975408 C166.21544,119.975408 165.476694,119.239866 165.476694,118.323656 L165.476694,108.413145 C165.476694,101.486772 160.740791,95.666577 154.327369,94.0148252 L154.327369,92.3082353 C154.327369,90.2499874 152.662734,88.5917938 150.610928,88.5917938 C148.562343,88.5917938 146.894486,90.2564293 146.894486,92.3082353 L146.894156,94.0148252 Z M144.829466,128.234166 L156.391729,128.234166 C156.391729,131.427994 153.804425,134.015298 150.610598,134.015298 C147.41677,134.015298 144.829466,131.427994 144.829466,128.234166 Z" id="Shape" fill="url(#linearGradient-3)" fill-rule="nonzero"/></g></g></g></svg>