<svg width="136" height="40" viewBox="0 0 136 40" version="1.1" xmlns="http://www.w3.org/2000/svg" xmlns:xlink="http://www.w3.org/1999/xlink"><title>g10</title><desc>Created with Sketch.</desc><defs><linearGradient x1="91.49%" y1="4.96%" x2="-38.317%" y2="71.909%" id="linearGradient-1"><stop stop-color="#00A0FF" offset="0%"/><stop stop-color="#00A1FF" offset=".66%"/><stop stop-color="#00BEFF" offset="26.01%"/><stop stop-color="#00D2FF" offset="51.22%"/><stop stop-color="#00DFFF" offset="76.04%"/><stop stop-color="#00E3FF" offset="100%"/></linearGradient><linearGradient x1="107.586%" y1="50.016%" x2="-130.492%" y2="50.016%" id="linearGradient-2"><stop stop-color="#FFE000" offset="0%"/><stop stop-color="#FFBD00" offset="40.87%"/><stop stop-color="orange" offset="77.54%"/><stop stop-color="#FF9C00" offset="100%"/></linearGradient><linearGradient x1="86.238%" y1="117.851%" x2="-50.131%" y2="294.785%" id="linearGradient-3"><stop stop-color="#FF3A44" offset="0%"/><stop stop-color="#C31162" offset="100%"/></linearGradient><linearGradient x1="-18.801%" y1="-154.171%" x2="42.094%" y2="-75.137%" id="linearGradient-4"><stop stop-color="#32A071" offset="0%"/><stop stop-color="#2DA771" offset="6.85%"/><stop stop-color="#15CF74" offset="47.62%"/><stop stop-color="#06E775" offset="80.09%"/><stop stop-color="#00F076" offset="100%"/></linearGradient></defs><g id="Browser-extension" stroke="none" stroke-width="1" fill="none" fill-rule="evenodd"><g id="4b.-Safe-Overview---INIT-state-&gt;-Android" transform="translate(-275.000000, -495.000000)" fill-rule="nonzero"><g id="Get_it_on_Google_play" transform="translate(274.000000, 494.000000)"><g id="g10" transform="translate(68.825237, 21.350250) scale(-1, 1) rotate(-180.000000) translate(-68.825237, -21.350250) translate(0.325237, 0.850250)"><g id="g12" transform="translate(0.879190, 0.000000)"><path d="M130.334922,0.9072975 L5.0358845,0.9072975 C2.28055867,0.9072975 0.023923,3.13767785 0.023923,5.86094625 L0.023923,35.5828388 C0.023923,38.3061072 2.28055867,40.5364875 5.0358845,40.5364875 L130.334922,40.5364875 C133.090248,40.5364875 135.346883,38.3061072 135.346883,35.5828388 L135.346883,5.86094625 C135.346883,3.13767785 133.090248,0.9072975 130.334922,0.9072975 Z" id="path14" fill="#000"/><g id="g18" transform="translate(44.505081, 30.629190) scale(-1, 1) rotate(-180.000000) translate(-44.505081, -30.629190) translate(41.372605, 26.913953)" fill="#FFF" stroke="#FFF" stroke-width=".625"><path d="M6.18225451,3.95672694 C6.18225451,4.78398628 5.93165644,5.4465368 5.43797823,5.94066326 C4.87037359,6.52643223 4.13110927,6.82117433 3.22519723,6.82117433 C2.35938088,6.82117433 1.62011655,6.52147858 1.01366921,5.93075597 C0.405968881,5.33136447 0.102745211,4.59574763 0.102745211,3.71523656 C0.102745211,2.8347255 0.405968881,2.09910866 1.01366921,1.50467081 C1.62011655,0.908994546 2.35938088,0.609298796 3.22519723,0.609298796 C3.65622591,0.609298796 4.06720676,0.697226062 4.45939274,0.86069647 C4.85032574,1.02540529 5.1685853,1.24831948 5.39913553,1.52324699 L4.87538555,2.04585693 C4.47317564,1.57649871 3.92561884,1.34491564 3.22519723,1.34491564 C2.59369008,1.34491564 2.04613328,1.56287618 1.58127385,2.00251251 C1.12142639,2.44338725 0.890876157,3.01429526 0.890876157,3.71523656 C0.890876157,4.41617786 1.12142639,4.99203953 1.58127385,5.43291427 C2.04613328,5.86759694 2.59369008,6.09051114 3.22519723,6.09051114 C3.89554708,6.09051114 4.45939274,5.86759694 4.90420433,5.42796062 C5.19740408,5.13693375 5.3640518,4.7356882 5.40790646,4.22298556 L3.22519723,4.22298556 L3.22519723,3.50718331 L6.13714686,3.50718331 C6.17223059,3.66198484 6.18225451,3.81183271 6.18225451,3.95672694 Z" id="path20"/></g><g id="g22" transform="translate(50.143538, 30.629190) scale(-1, 1) rotate(-180.000000) translate(-50.143538, -30.629190) translate(47.637557, 26.913953)" fill="#FFF" stroke="#FFF" stroke-width=".625"><polygon id="path24" points="4.53707815 1.47494892 1.80180016 1.47494892 1.80180016 3.35733544 4.26768522 3.35733544 4.26768522 4.07313768 1.80180016 4.07313768 1.80180016 5.95552421 4.53707815 5.95552421 4.53707815 6.68494899 1.02745211 6.68494899 1.02745211 0.745524137 4.53707815 0.745524137"/></g><g id="g26" transform="translate(55.155499, 30.629190) scale(-1, 1) rotate(-180.000000) translate(-55.155499, -30.629190) translate(52.649519, 26.913953)" fill="#FFF" stroke="#FFF" stroke-width=".625"><polygon id="path28" points="2.7853976 6.68494899 2.01104955 6.68494899 2.01104955 1.47494892 0.33329544 1.47494892 0.33329544 0.745524137 4.46440471 0.745524137 4.46440471 1.47494892 2.7853976 1.47494892 2.7853976 6.68494899"/></g><g id="g30" transform="translate(60.167461, 30.629190) scale(-1, 1) rotate(-180.000000) translate(-60.167461, -30.629190) translate(58.914471, 26.913953)" fill="#FFF" stroke="#FFF" stroke-width=".625"><polygon id="path32" points="1.18908787 6.68494899 1.18908787 0.745524137 1.96218293 0.745524137 1.96218293 6.68494899"/></g><g id="g34" transform="translate(63.926432, 30.629190) scale(-1, 1) rotate(-180.000000) translate(-63.926432, -30.629190) translate(61.420451, 26.913953)" fill="#FFF" stroke="#FFF" stroke-width=".625"><polygon id="path36" points="2.88313085 6.68494899 2.11504775 6.68494899 2.11504775 1.47494892 0.431028689 1.47494892 0.431028689 0.745524137 4.56714992 0.745524137 4.56714992 1.47494892 2.88313085 1.47494892"/></g><g id="g38" transform="translate(71.444374, 30.629190) scale(-1, 1) rotate(-180.000000) translate(-71.444374, -30.629190) translate(67.685403, 26.913953)" fill="#FFF" stroke="#FFF" stroke-width=".625"><path d="M6.12336396,5.92084867 C5.53069952,6.52147858 4.79644716,6.82117433 3.92060688,6.82117433 C3.03975465,6.82117433 2.30550229,6.52147858 1.71283784,5.92084867 C1.12142639,5.32145717 0.826973647,4.58584033 0.826973647,3.71523656 C0.826973647,2.84463279 1.12142639,2.10901596 1.71283784,1.50962446 C2.30550229,0.908994546 3.03975465,0.609298796 3.92060688,0.609298796 C4.79143519,0.609298796 5.52568755,0.908994546 6.118352,1.51457811 C6.71477542,2.11892325 7.00922816,2.84958644 7.00922816,3.71523656 C7.00922816,4.58584033 6.71477542,5.32145717 6.12336396,5.92084867 Z M2.28545444,5.42300697 C2.73151902,5.86759694 3.27406385,6.09051114 3.92060688,6.09051114 C4.56213796,6.09051114 5.10969475,5.86759694 5.55074736,5.42300697 C5.99555894,4.97841699 6.22109721,4.40750898 6.22109721,3.71523656 C6.22109721,3.02296415 5.99555894,2.45205613 5.55074736,2.00746616 C5.10969475,1.56287618 4.56213796,1.33996199 3.92060688,1.33996199 C3.27406385,1.33996199 2.73151902,1.56287618 2.28545444,2.00746616 C1.84064286,2.45205613 1.61510459,3.02296415 1.61510459,3.71523656 C1.61510459,4.40750898 1.84064286,4.97841699 2.28545444,5.42300697 Z" id="path40"/></g><g id="g42" transform="translate(78.335821, 30.629190) scale(-1, 1) rotate(-180.000000) translate(-78.335821, -30.629190) translate(75.203346, 26.913953)" fill="#FFF" stroke="#FFF" stroke-width=".625"><polygon id="path44" points="0.577628563 6.68494899 0.577628563 0.745524137 1.51737134 0.745524137 4.4393449 5.3648016 4.47317564 5.3648016 4.4393449 4.22298556 4.4393449 0.745524137 5.21243996 0.745524137 5.21243996 6.68494899 4.40551416 6.68494899 1.34571166 1.83780369 1.31188092 1.83780369 1.34571166 2.98457337 1.34571166 6.68494899 0.577628563 6.68494899"/></g><path d="M68.3219224,18.9856386 C65.9675534,18.9856386 64.0442132,17.2147092 64.0442132,14.7713219 C64.0442132,12.3477493 65.9675534,10.5582437 68.3219224,10.5582437 C70.6813032,10.5582437 72.6046435,12.3477493 72.6046435,14.7713219 C72.6046435,17.2147092 70.6813032,18.9856386 68.3219224,18.9856386 Z M68.3219224,12.217716 C67.0300893,12.217716 65.9186868,13.2716048 65.9186868,14.7713219 C65.9186868,16.2908537 67.0300893,17.3261663 68.3219224,17.3261663 C69.6137554,17.3261663 70.7301699,16.2908537 70.7301699,14.7713219 C70.7301699,13.2716048 69.6137554,12.217716 68.3219224,12.217716 Z M58.9883971,18.9856386 C56.6290162,18.9856386 54.7106879,17.2147092 54.7106879,14.7713219 C54.7106879,12.3477493 56.6290162,10.5582437 58.9883971,10.5582437 C61.3465249,10.5582437 63.2661062,12.3477493 63.2661062,14.7713219 C63.2661062,17.2147092 61.3465249,18.9856386 58.9883971,18.9856386 Z M58.9883971,12.217716 C57.695311,12.217716 56.5801496,13.2716048 56.5801496,14.7713219 C56.5801496,16.2908537 57.695311,17.3261663 58.9883971,17.3261663 C60.2802301,17.3261663 61.3916326,16.2908537 61.3916326,14.7713219 C61.3916326,13.2716048 60.2802301,12.217716 58.9883971,12.217716 Z M47.8818904,17.6939747 L47.8818904,15.9032307 L52.2084661,15.9032307 C52.0819141,14.9025936 51.7436067,14.1669768 51.2248687,13.6542741 C50.5933615,13.0350681 49.6097641,12.3477493 47.8818904,12.3477493 C45.2192858,12.3477493 43.1343098,14.4716262 43.1343098,17.1032521 C43.1343098,19.734878 45.2192858,21.8587549 47.8818904,21.8587549 C49.3215763,21.8587549 50.3690763,21.3027078 51.1421713,20.5819519 L52.4189685,21.8438939 C51.3376378,22.8643456 49.8992049,23.6482605 47.8818904,23.6482605 C44.2306764,23.6482605 41.162103,20.7119852 41.162103,17.1032521 C41.162103,13.494519 44.2306764,10.5582437 47.8818904,10.5582437 C49.8553502,10.5582437 51.3376378,11.1972644 52.5029189,12.3960474 C53.6970187,13.5762542 54.0691568,15.2357265 54.0691568,16.5756885 C54.0691568,16.991795 54.0340731,17.3744644 53.9714236,17.6939747 L47.8818904,17.6939747 Z M93.2977795,16.3057146 C92.9456892,17.2481463 91.8593466,18.9856386 89.6465656,18.9856386 C87.4538324,18.9856386 85.6282254,17.2778682 85.6282254,14.7713219 C85.6282254,12.4109083 87.4350375,10.5582437 89.8570679,10.5582437 C91.8154919,10.5582437 92.9456892,11.7384505 93.4105486,12.4257693 L91.9570798,13.3830619 C91.4721725,12.6821206 90.8118466,12.217716 89.8570679,12.217716 C88.9085542,12.217716 88.2281804,12.647445 87.7921398,13.494519 L93.494499,15.8264491 L93.2977795,16.3057146 Z M87.4839042,14.9025936 C87.4350375,16.5273904 88.7607014,17.3596034 89.7104681,17.3596034 C90.4547443,17.3596034 91.0862515,16.991795 91.2967539,16.4654698 L87.4839042,14.9025936 Z M82.8490928,10.814595 L84.7235664,10.814595 L84.7235664,23.1987169 L82.8490928,23.1987169 L82.8490928,10.814595 Z M79.7792663,18.0469222 L79.7166168,18.0469222 C79.2956121,18.5398102 78.4924452,18.9856386 77.475017,18.9856386 C75.3399215,18.9856386 73.3877624,17.132974 73.3877624,14.7576994 C73.3877624,12.3960474 75.3399215,10.5582437 77.475017,10.5582437 C78.4924452,10.5582437 79.2956121,11.0077873 79.7166168,11.5155363 L79.7792663,11.5155363 L79.7792663,10.9111912 C79.7792663,9.30001689 78.908438,8.43436678 77.5038358,8.43436678 C76.3586026,8.43436678 75.6481571,9.25171882 75.3549573,9.93903758 L73.7248169,9.26657977 C74.1946882,8.14953197 75.4389077,6.77489444 77.5038358,6.77489444 C79.7015809,6.77489444 81.5560067,8.05293582 81.5560067,11.1625888 L81.5560067,18.7292873 L79.7792663,18.7292873 L79.7792663,18.0469222 Z M77.6353998,12.217716 C76.3435667,12.217716 75.262236,13.2864657 75.262236,14.7576994 C75.262236,16.2425556 76.3435667,17.3261663 77.6353998,17.3261663 C78.908438,17.3261663 79.9120833,16.2425556 79.9120833,14.7576994 C79.9120833,13.2864657 78.908438,12.217716 77.6353998,12.217716 Z M102.073724,23.1987169 L97.5905245,23.1987169 L97.5905245,10.814595 L99.4599862,10.814595 L99.4599862,15.5069388 L102.073724,15.5069388 C104.149929,15.5069388 106.186039,16.991795 106.186039,19.353447 C106.186039,21.7138607 104.144917,23.1987169 102.073724,23.1987169 Z M102.122591,17.2295701 L99.4599862,17.2295701 L99.4599862,21.4760855 L102.122591,21.4760855 C103.518422,21.4760855 104.315324,20.3305542 104.315324,19.353447 C104.315324,18.394916 103.518422,17.2295701 102.122591,17.2295701 Z M113.678921,19.0091684 C112.328197,19.0091684 110.923595,18.4196842 110.345967,17.1131594 L112.004926,16.4258406 C112.362028,17.1131594 113.018595,17.3360736 113.712752,17.3360736 C114.682566,17.3360736 115.666164,16.7602119 115.6812,15.7434755 L115.6812,15.6134422 C115.342892,15.8066345 114.618664,16.0927077 113.727788,16.0927077 C111.941023,16.0927077 110.120428,15.1205542 110.120428,13.3062803 C110.120428,11.646808 111.583921,10.5780583 113.229097,10.5780583 C114.4871,10.5780583 115.181256,11.139059 115.617297,11.7917022 L115.6812,11.7917022 L115.6812,10.8344096 L117.486759,10.8344096 L117.486759,15.5849587 C117.486759,17.7806636 115.827799,19.0091684 113.678921,19.0091684 Z M113.453383,12.2226697 C112.841923,12.2226697 111.98989,12.5223654 111.98989,13.2716048 C111.98989,14.2301358 113.052426,14.5979442 113.972121,14.5979442 C114.795335,14.5979442 115.181256,14.4183745 115.6812,14.1818377 C115.5346,13.0350681 114.535966,12.2226697 113.453383,12.2226697 Z M124.064958,18.7379562 L121.91608,13.3694393 L121.852177,13.3694393 L119.630625,18.7379562 L117.614564,18.7379562 L120.95253,11.2356551 L119.047985,7.06096766 L121.001397,7.06096766 L126.144922,18.7379562 L124.064958,18.7379562 Z M107.213491,10.814595 L109.087964,10.814595 L109.087964,23.1987169 L107.213491,23.1987169 L107.213491,10.814595 Z" id="path46" fill="#FFF"/><g id="g48" transform="translate(8.794856, 7.099358)" fill="url(#linearGradient-1)"><path d="M1.68903103,25.9682652 C1.39457829,25.6636158 1.2241716,25.1893039 1.2241716,24.5750514 L1.2241716,2.66506303 C1.2241716,2.05081058 1.39457829,1.57649871 1.68903103,1.27184932 L1.76170447,1.20497506 L14.183851,13.4776398 L14.183851,13.7674283 L1.76170447,26.0400931 L1.68903103,25.9682652 Z" id="path64"/></g><g id="g66" transform="translate(22.577750, 15.768244)" fill="url(#linearGradient-2)"><path d="M4.53707815,0.715802244 L0.40095692,4.80875452 L0.40095692,5.09854298 L4.54209011,9.19149526 L4.6348114,9.13824353 L9.53901572,6.38029959 C10.938606,5.59762309 10.938606,4.30967441 9.53901572,3.52204426 L4.6348114,0.769053968 L4.53707815,0.715802244 Z" id="path78"/></g><g id="g80" transform="translate(10.047846, 7.099358)" fill="url(#linearGradient-3)"><path d="M17.1647151,9.43793928 L12.9308607,13.6225341 L0.43604065,1.27184932 C0.90090008,0.788868563 1.65895926,0.730663191 2.52101663,1.21364394 L17.1647151,9.43793928" id="path88"/></g><g id="g90" transform="translate(10.047846, 20.721892)" fill="url(#linearGradient-4)"><path d="M17.1647151,4.18459478 L2.52101663,12.4088901 C1.65895926,12.8869172 0.90090008,12.8287119 0.43604065,12.3457311 L12.9308607,0 L17.1647151,4.18459478 Z" id="path104"/></g></g></g></g></g></g></svg>