<svg height="15" viewBox="0 0 16 15" width="16" xmlns="http://www.w3.org/2000/svg"><path d="m27.6650803 168c-1.0513451 0-1.9036288.852284-1.9036288 1.903629v.380726c-.420538 0-.7614515.340913-.7614515.761451v3.045806c0 .420538.3409135.761452.7614515.761452h3.8072576c.4205381 0 .7614515-.340914.7614515-.761452v-3.045806c0-.420538-.3409134-.761451-.7614515-.761451v-.380726c0-1.051345-.8522836-1.903629-1.9036288-1.903629zm0 .761452c.6308071 0 1.1421773.51137 1.1421773 1.142177v.380726h-2.2843546v-.380726c0-.630807.5113702-1.142177 1.1421773-1.142177zm10.7821535 0c-.1979774 0-.3807258.06853-.5254016.213206l-1.4010707 1.408685 2.8554431 2.855443 1.4010708-1.408685c.2969661-.296966.2969661-.784295 0-1.066032l-1.7817965-1.789411c-.1522903-.144676-.3578822-.213206-.5482451-.213206zm-2.7412255 2.42903-8.4216537 8.421654v2.855443h2.8554431l8.4216538-8.421654z" fill="#65707e" transform="translate(-25 -168)"/></svg>