<svg width="16" height="22" viewBox="0 0 16 22" version="1.1" xmlns="http://www.w3.org/2000/svg" xmlns:xlink="http://www.w3.org/1999/xlink"><title>Shape</title><desc>Created with Sketch.</desc><g id="Page-1" stroke="none" stroke-width="1" fill="none" fill-rule="evenodd"><g id="rsync" transform="translate(-4.000000, 0.000000)" fill="#65707E" fill-rule="nonzero"><path d="M12,3 L12,0 L8,4 L12,8 L12,5 C15.31,5 18,7.69 18,11 C18,12.01 17.75,12.97 17.3,13.8 L18.76,15.26 C19.54,14.03 20,12.57 20,11 C20,6.58 16.42,3 12,3 Z M12,17 C8.69,17 6,14.31 6,11 C6,9.99 6.25,9.03 6.7,8.2 L5.24,6.74 C4.46,7.97 4,9.43 4,11 C4,15.42 7.58,19 12,19 L12,22 L16,18 L12,14 L12,17 Z" id="Shape"/></g></g></svg>