<svg xmlns="http://www.w3.org/2000/svg" xmlns:xlink="http://www.w3.org/1999/xlink" width="115" height="151" viewBox="0 0 115 151">
    <defs>
        <path id="a" d="M.06.218h5.854v12.74H.06z"/>
        <path id="c" d="M.05.218h5.855v12.74H.05z"/>
    </defs>
    <g fill="none" fill-rule="evenodd">
        <path fill="#001428" d="M5.13 137.235L0 150.775h1.736l1.2-3.299h6.047l1.22 3.3h1.736l-5.15-13.54H5.13zm.801 2.002h.038l2.499 6.79H3.47l2.46-6.79zM13.11 147.019v-5.531h1.544v5.092c0 2.098.801 2.899 2.27 2.899 1.487 0 2.765-1.278 2.765-3.49v-4.501h1.545v9.288h-1.545v-1.602h-.02c-.705 1.106-1.85 1.716-3.07 1.716-2.136 0-3.49-1.22-3.49-3.871"/>
        <g transform="translate(22.675 137.933)">
            <mask id="b" fill="#fff">
                <use xlink:href="#a"/>
            </mask>
            <path fill="#001428" d="M1.26 10.077V4.89H.06V3.555h1.2V.389L2.807.218v3.337h3.07V4.89h-3.07v4.958c0 1.126.248 1.66 1.125 1.66.553 0 1.125-.23 1.583-.477l.4 1.354c-.515.305-1.144.572-2.25.572-1.64 0-2.403-1.01-2.403-2.88" mask="url(#b)"/>
        </g>
        <path fill="#001428" d="M30.077 136.74h1.545v6.369h.018c.725-1.106 1.946-1.735 3.433-1.735 2.003 0 3.376 1.182 3.376 3.833v5.569h-1.545v-5.13c0-2.098-.934-2.861-2.288-2.861-1.85 0-2.994 1.22-2.994 3.318v4.673h-1.545v-14.037zM41.857 145.34h5.702c-.229-1.525-1.22-2.555-2.746-2.555-1.488 0-2.67.972-2.956 2.555m7.209 1.26h-7.247c.21 1.735 1.43 2.879 3.185 2.879 1.24 0 2.117-.534 2.688-1.24l1.088.916c-.802 1.03-1.965 1.735-3.834 1.735-2.746 0-4.691-1.907-4.691-4.749 0-2.803 1.926-4.767 4.577-4.767 2.536 0 4.272 1.945 4.272 4.596 0 .248-.038.515-.038.63M51.014 141.488h1.545v1.678h.02c.724-1.125 1.944-1.792 3.375-1.792 2.002 0 3.337 1.24 3.337 3.89v5.512h-1.544v-5.073c0-2.174-.935-2.918-2.29-2.918-1.754 0-2.898 1.259-2.898 3.356v4.635h-1.545v-9.288z"/>
        <g transform="translate(60.55 137.933)">
            <mask id="d" fill="#fff">
                <use xlink:href="#c"/>
            </mask>
            <path fill="#001428" d="M1.251 10.077V4.89H.05V3.555H1.25V.389L2.796.218v3.337h3.07V4.89h-3.07v4.958c0 1.126.248 1.66 1.125 1.66.553 0 1.125-.23 1.583-.477l.4 1.354c-.514.305-1.144.572-2.25.572-1.64 0-2.403-1.01-2.403-2.88" mask="url(#d)"/>
        </g>
        <path fill="#001428" d="M67.993 150.776h1.544v-9.288h-1.544v9.288zm-.344-12.091c0-.61.496-1.107 1.126-1.107.629 0 1.125.496 1.125 1.107 0 .61-.496 1.106-1.125 1.106-.63 0-1.126-.496-1.126-1.106zM71.49 146.141c0-2.803 1.927-4.768 4.692-4.768 1.392 0 2.823.573 3.738 1.66l-1.049.934a3.423 3.423 0 0 0-2.613-1.182c-1.907 0-3.185 1.392-3.185 3.356 0 1.984 1.278 3.338 3.166 3.338 1.106 0 2.079-.477 2.651-1.183l1.068.973c-.782.935-2.021 1.621-3.833 1.621-2.708 0-4.635-1.926-4.635-4.749M88.65 146.199c0-1.908-1.277-3.414-3.108-3.414-1.755 0-3.185 1.354-3.185 3.414 0 1.869 1.278 3.28 3.185 3.28 1.716 0 3.109-1.316 3.109-3.28m-7.858 0c0-2.747 1.888-4.825 4.52-4.825 1.373 0 2.575.648 3.242 1.773l.039-.019v-1.64h1.544v9.288h-1.487v-1.678h-.02c-.667 1.106-1.811 1.792-3.318 1.792-2.555 0-4.52-1.869-4.52-4.691M92.83 148.01v-5.187h-1.2v-1.335h1.2v-3.166l1.545-.171v3.337h3.07v1.335h-3.07v4.959c0 1.125.248 1.659 1.126 1.659.553 0 1.125-.23 1.582-.477l.401 1.354c-.515.305-1.144.572-2.25.572-1.64 0-2.403-1.01-2.403-2.88M106.169 146.141c0-1.983-1.411-3.356-3.204-3.356-1.945 0-3.223 1.506-3.223 3.356 0 1.85 1.297 3.338 3.223 3.338 1.774 0 3.204-1.354 3.204-3.338m-8.01 0c0-2.67 1.926-4.768 4.806-4.768 2.746 0 4.787 1.946 4.787 4.768 0 2.823-2.04 4.75-4.787 4.75-2.88 0-4.806-2.08-4.806-4.75M109.714 141.488h1.545v1.697h.038c.667-1.125 1.735-1.811 3.013-1.811.133 0 .248 0 .381.019v1.716c-.228-.019-.457-.038-.61-.038-1.774 0-2.822 1.354-2.822 3.223v4.482h-1.545v-9.288zM12.161 130.396a6.487 6.487 0 0 1-1.906-.862 6.39 6.39 0 0 1-1.495-1.388 6.153 6.153 0 0 1-.972-1.909 8.28 8.28 0 0 1 .12-5.108c.292-.81.74-1.557 1.318-2.195a5.952 5.952 0 0 1 2.145-1.465 7.397 7.397 0 0 1 2.87-.536c1.021.003 2.03.215 2.966.623.945.394 1.786 1 2.457 1.774l-2.243 1.899a4.44 4.44 0 0 0-3.18-1.326 3.379 3.379 0 0 0-1.34.267 3.266 3.266 0 0 0-1.106.765c-.331.36-.585.784-.748 1.245a4.776 4.776 0 0 0-.281 1.67c-.003.52.082 1.037.249 1.53.156.455.395.878.705 1.246a3.28 3.28 0 0 0 1.144.847c.477.213.995.32 1.517.314a4.7 4.7 0 0 0 2.295-.6v-1.52h-2.589v-2.65h5.607v6.03a7.312 7.312 0 0 1-2.365 1.182c-.96.3-1.96.453-2.965.45a8.338 8.338 0 0 1-2.203-.283M28.749 121.318c.39.132.744.351 1.036.64.331.337.571.752.698 1.207.174.593.258 1.208.25 1.826v5.542h-2.96v-4.814a3.326 3.326 0 0 0-.173-1.184 1.104 1.104 0 0 0-.478-.608 1.704 1.704 0 0 0-.825-.172 1.655 1.655 0 0 0-.885.232c-.268.171-.476.422-.595.718a2.931 2.931 0 0 0-.217 1.19v4.638h-2.95v-9.235h2.95v1.116h.018a3.753 3.753 0 0 1 1.263-.959 3.614 3.614 0 0 1 1.532-.331c.453-.01.905.055 1.336.194M38.626 127.475a2.41 2.41 0 0 0 0-3.114 2.013 2.013 0 0 0-2.847-.036l-.036.036a2.417 2.417 0 0 0 0 3.107 1.97 1.97 0 0 0 2.863 0l.02.007zm-3.453 2.888a4.575 4.575 0 0 1-1.58-.996 4.42 4.42 0 0 1-1.014-1.523 5.274 5.274 0 0 1 0-3.862 4.423 4.423 0 0 1 1.014-1.522 4.659 4.659 0 0 1 1.58-.997 5.598 5.598 0 0 1 2.028-.359 5.43 5.43 0 0 1 2.584.603c.738.387 1.35.978 1.764 1.702a5.233 5.233 0 0 1 0 4.983 4.383 4.383 0 0 1-1.764 1.697 5.43 5.43 0 0 1-2.584.603 5.656 5.656 0 0 1-2.028-.329zM43.054 129.344l1.4-1.993a3.489 3.489 0 0 0 2.425 1.051 1.5 1.5 0 0 0 .453-.06.614.614 0 0 0 .282-.174.423.423 0 0 0 .095-.282c0-.124-.1-.249-.3-.356a6.701 6.701 0 0 0-1.118-.428c-.235-.073-.449-.15-.646-.225a5.917 5.917 0 0 1-.6-.276 4.586 4.586 0 0 1-.538-.337 3.145 3.145 0 0 1-.449-.41 2.365 2.365 0 0 1-.576-1.102 3.176 3.176 0 0 1-.087-.713c-.01-.55.152-1.09.461-1.545.313-.448.744-.8 1.246-1.016a4.26 4.26 0 0 1 1.762-.352c.427-.003.853.04 1.27.13.39.083.768.211 1.127.381.383.183.747.403 1.086.658l-1.403 2.11a3.397 3.397 0 0 0-1.031-.717 2.6 2.6 0 0 0-1.052-.25.933.933 0 0 0-.45.11.379.379 0 0 0-.205.36c0 .116.095.236.282.36.293.172.603.31.926.414l.586.217a11.691 11.691 0 0 1 .997.426c.127.065.261.14.406.224.124.074.243.157.354.25.1.088.196.182.286.28.091.099.168.209.23.327.059.122.11.247.157.374.05.144.086.293.107.444.02.165.032.331.032.498.006.41-.073.816-.232 1.194a2.617 2.617 0 0 1-.682.942c-.34.288-.738.5-1.167.625a5.37 5.37 0 0 1-1.637.226 5.563 5.563 0 0 1-3.797-1.365M52.206 130.533h2.94v-9.24h-2.94v9.24zm.16-10.82a1.605 1.605 0 0 1-.529-1.245 1.637 1.637 0 0 1 .25-.89c.164-.259.396-.469.67-.608.287-.146.605-.22.927-.217.484-.015.954.16 1.313.484.35.312.544.762.53 1.23.016.474-.178.93-.53 1.247a2.028 2.028 0 0 1-2.629 0h-.002zM56.564 129.344l1.403-1.993a3.488 3.488 0 0 0 2.425 1.051c.152.004.304-.016.45-.06a.604.604 0 0 0 .282-.174.425.425 0 0 0 .097-.282c0-.124-.1-.249-.299-.356a6.684 6.684 0 0 0-1.121-.428c-.234-.073-.448-.15-.645-.225a5.828 5.828 0 0 1-.598-.276 4.596 4.596 0 0 1-.541-.337 2.993 2.993 0 0 1-.446-.41 2.395 2.395 0 0 1-.578-1.107 3.198 3.198 0 0 1-.077-.725c-.01-.55.151-1.09.46-1.545.313-.449.744-.801 1.246-1.017a4.253 4.253 0 0 1 1.76-.351c.427-.003.855.04 1.273.13.388.083.765.21 1.124.38.38.183.742.405 1.079.66l-1.4 2.112a3.41 3.41 0 0 0-1.035-.718 2.588 2.588 0 0 0-1.049-.25.955.955 0 0 0-.453.11.38.38 0 0 0-.202.36c0 .116.094.236.281.36.293.172.604.31.927.414l.586.217c.157.06.329.127.52.21.193.082.35.151.474.216.125.065.262.14.406.224.126.073.245.157.357.25.1.088.195.181.284.281.092.097.17.207.231.326.06.122.112.247.157.374.05.144.085.293.105.444.022.165.033.331.032.498.005.41-.073.815-.229 1.194a2.617 2.617 0 0 1-.683.942c-.34.288-.737.5-1.166.625a5.394 5.394 0 0 1-1.637.227 5.576 5.576 0 0 1-3.8-1.35M71.998 130.184a7.27 7.27 0 0 1-2.337-1.605l1.864-2.305c.443.496.977.903 1.572 1.199.493.252 1.036.39 1.59.403.3.01.598-.041.877-.151.203-.075.377-.212.498-.392.097-.167.146-.359.142-.553a1.022 1.022 0 0 0-.416-.862 5.977 5.977 0 0 0-1.585-.705c-.326-.11-.615-.217-.872-.319a10.45 10.45 0 0 1-.825-.376 6.615 6.615 0 0 1-.77-.461 5.044 5.044 0 0 1-.645-.564 3.15 3.15 0 0 1-.516-.697 3.891 3.891 0 0 1-.324-.847 4.11 4.11 0 0 1-.124-1.032 3.638 3.638 0 0 1 .586-2.006 4.097 4.097 0 0 1 1.597-1.43 4.937 4.937 0 0 1 2.217-.538c1.676-.025 3.231.556 4.665 1.744l-1.8 2.342c-1.07-.862-1.991-1.292-2.765-1.29-.32-.018-.636.08-.89.276a.984.984 0 0 0-.341.785.873.873 0 0 0 .401.748c.489.306 1.01.557 1.555.747.78.283 1.543.612 2.285.984a3.417 3.417 0 0 1 1.632 1.745c.162.455.24.936.232 1.42a4.38 4.38 0 0 1-.304 1.66c-.178.459-.45.876-.798 1.225a4.654 4.654 0 0 1-1.143.813 5.225 5.225 0 0 1-1.31.47 6.472 6.472 0 0 1-1.332.138 6.73 6.73 0 0 1-2.616-.566M86.961 127.51c.386-.43.588-.994.563-1.572a2.48 2.48 0 0 0-.249-1.131c-.157-.32-.4-.591-.7-.783a1.833 1.833 0 0 0-.997-.281 1.853 1.853 0 0 0-1.42.608 2.514 2.514 0 0 0 0 3.16 1.94 1.94 0 0 0 2.813 0h-.01zm3.401-6.212v9.24h-2.8v-.997h-.038c-.598.782-1.45 1.171-2.564 1.171a4.355 4.355 0 0 1-1.744-.349 4.034 4.034 0 0 1-1.383-.969 4.35 4.35 0 0 1-.894-1.512 6.016 6.016 0 0 1 0-3.895c.192-.561.492-1.08.884-1.525a4.031 4.031 0 0 1 1.343-.984 3.96 3.96 0 0 1 1.665-.354c.98-.026 1.918.4 2.544 1.154h.037v-.98h2.95zM92.615 123.7h-.905v-2.402h.905v-1.437c0-1.118.269-1.965.807-2.54.538-.574 1.286-.862 2.243-.862.5-.007 1 .07 1.475.23.358.113.699.274 1.014.478l-.543 2.123a2.642 2.642 0 0 0-1.171-.324c-.57 0-.858.337-.858.997v1.335h1.762v2.408h-1.762v6.832h-2.967V123.7zM101.506 123.862c-.332.275-.551.66-.618 1.084l3.458-.02a2.238 2.238 0 0 0-.324-.775 1.465 1.465 0 0 0-.57-.498 1.745 1.745 0 0 0-.786-.177 1.795 1.795 0 0 0-1.16.386m5.66 2.843h-6.289c.087.479.362.902.763 1.177.419.284.916.432 1.423.42a2.89 2.89 0 0 0 2.242-1.116l1.568 1.762a4.462 4.462 0 0 1-1.69 1.276c-.766.335-1.596.5-2.432.483a5.135 5.135 0 0 1-1.906-.349 4.509 4.509 0 0 1-1.525-.974 4.45 4.45 0 0 1-.997-1.52 5.09 5.09 0 0 1-.368-1.951 5.17 5.17 0 0 1 .354-1.926 4.332 4.332 0 0 1 2.461-2.51 4.875 4.875 0 0 1 1.877-.358 4.707 4.707 0 0 1 2.38.6 4.193 4.193 0 0 1 1.636 1.677c.397.75.599 1.587.586 2.435a6.726 6.726 0 0 1-.082.874"/>
        <g>
            <path fill="#008C73" d="M109.172 74.958H11.243a51.67 51.67 0 0 0 11.619 15.224h76.336a56.825 56.825 0 0 0 9.974-15.224"/>
            <path fill="#FFF" d="M33.297 82.346c1.105 0 1.704-.537 1.704-1.443 0-.83-.507-1.443-1.658-1.443h-1.336v2.886h1.29zm-3.792-5.143h4.252c2.703 0 3.9 1.581 3.9 3.761 0 1.582-.706 2.718-2.057 3.27l2.594 3.87h-3.009l-2.241-3.516h-.937v3.516h-2.502V77.203zM39.838 88.104h2.626V77.203h-2.626zM44.893 77.203h2.472l4.345 6.724.03-.015v-6.71h2.533v10.902h-2.548l-4.268-6.54h-.031v6.54h-2.533zM56.693 77.203h2.564v4.176h.03l3.163-4.176h3.24l-3.93 4.729 4.068 6.172h-3.147l-2.61-4.146-.814.998v3.148h-2.564zM67.167 77.203h7.108v2.288H69.67v2.088h3.639v2.21h-3.639v2.027h4.929v2.288h-7.431zM80.83 85.877c.86 0 1.367-.399 1.367-1.167 0-.736-.507-1.182-1.458-1.182H79.08v2.35h1.75zm-.352-4.298c.798 0 1.259-.354 1.259-1.075 0-.63-.338-1.06-1.398-1.06h-1.258v2.135h1.397zm-3.9-4.376h4.13c2.41 0 3.577.982 3.577 2.656 0 .937-.383 1.919-1.642 2.41v.031c1.55.4 2.21 1.412 2.21 2.764 0 1.765-1.151 3.04-3.592 3.04h-4.683V77.203zM88.678 83.36l-3.547-6.157h2.933l1.919 3.623h.03l1.89-3.623h2.962l-3.577 6.157v4.744h-2.61z"/>
            <path fill="#001428" d="M29.496 95.247a51.25 51.25 0 0 0 27.801 8.147A51.249 51.249 0 0 0 85.1 95.247H29.496zM56.814 37.307c7.284 0 13.318 5.35 14.388 12.335h23.785a2.533 2.533 0 0 1 0 5.065H71.091C69.768 61.384 63.88 66.42 56.814 66.42c-8.038 0-14.555-6.517-14.555-14.556 0-8.039 6.517-14.556 14.555-14.556zm48.745 32.586a51.372 51.372 0 0 0 3.235-17.996C108.794 23.457 85.738.4 57.297.4S5.8 23.456 5.8 51.897c0 6.331 1.145 12.394 3.235 17.996h96.524z"/>
        </g>
    </g>
</svg>
