<svg xmlns="http://www.w3.org/2000/svg" xmlns:xlink="http://www.w3.org/1999/xlink" width="32" height="32" viewBox="0 0 32 32">
    <defs>
        <path id="a" d="M0 31.945h32.062V0H0z"/>
    </defs>
    <g fill="none" fill-rule="evenodd">
        <path fill="#008C73" d="M32.062 23.125H1.688a16.026 16.026 0 0 0 3.604 4.722h23.677a17.625 17.625 0 0 0 3.093-4.722"/>
        <path fill="#FFF" d="M8.528 25.417c.343 0 .529-.167.529-.448 0-.257-.157-.448-.514-.448h-.415v.896h.4zM7.352 23.82h1.32c.837 0 1.209.49 1.209 1.167 0 .49-.22.843-.638 1.014l.805 1.2h-.934l-.695-1.09h-.29v1.09h-.777v-3.38z"/>
        <mask id="b" fill="#fff">
            <use xlink:href="#a"/>
        </mask>
        <path fill="#FFF" d="M10.557 27.202h.815v-3.38h-.815zM12.125 23.821h.767l1.347 2.086.01-.005v-2.08h.786v3.38h-.79l-1.325-2.028h-.01v2.028h-.785zM15.785 23.821h.795v1.296h.01l.98-1.296h1.006l-1.22 1.467 1.262 1.914h-.976l-.81-1.285-.252.31v.975h-.795zM19.034 23.821h2.205v.71h-1.43v.648h1.13v.685h-1.13v.629h1.53v.71h-2.305zM23.272 26.512c.266 0 .424-.124.424-.362 0-.229-.158-.367-.453-.367h-.514v.729h.543zm-.11-1.333c.248 0 .39-.11.39-.334 0-.195-.104-.328-.433-.328h-.39v.662h.433zm-1.21-1.358h1.282c.747 0 1.11.305 1.11.824 0 .29-.12.595-.51.748v.01c.48.123.685.437.685.857 0 .547-.357.942-1.114.942h-1.452v-3.38zM25.706 25.731l-1.1-1.91h.91l.594 1.124h.01l.586-1.124h.919l-1.11 1.91v1.471h-.81z" mask="url(#b)"/>
        <path fill="#001428" d="M7.35 29.418a15.896 15.896 0 0 0 8.623 2.527c3.176 0 6.135-.928 8.622-2.527H7.35zM15.823 11.447c2.259 0 4.13 1.66 4.462 3.826h7.378a.786.786 0 0 1 0 1.571H20.25a4.516 4.516 0 0 1-8.943-.882 4.515 4.515 0 0 1 4.515-4.515zM30.94 21.554a15.934 15.934 0 0 0 1.004-5.581C31.945 7.15 24.794 0 15.973 0 7.15 0 0 7.151 0 15.973c0 1.963.355 3.844 1.004 5.581H30.94z" mask="url(#b)"/>
    </g>
</svg>
