<svg width="10" height="10" viewBox="0 0 10 10" version="1.1" xmlns="http://www.w3.org/2000/svg" xmlns:xlink="http://www.w3.org/1999/xlink"><title>np_trash_858223_000000</title><desc>Created with Sketch.</desc><g id="Browser-extension" stroke="none" stroke-width="1" fill="none" fill-rule="evenodd"><g id="np_trash_858223_000000" fill="#FFF" fill-rule="nonzero"><path d="M0.770135135,2.83783784 L1.25683784,9.05405405 C1.28375946,9.52702703 1.70289189,9.89178378 2.18905405,9.89178378 L7.27040541,9.89178378 C7.7702973,9.89178378 8.1757027,9.52702703 8.20262162,9.05405405 L8.68932432,2.83783784 L0.770135135,2.83783784 Z M6.365,7.02702703 C6.5677027,7.22972973 6.5677027,7.55383784 6.365,7.75654054 C6.27051081,7.86475405 6.13537838,7.90540541 6.00024324,7.90540541 C5.86510811,7.90540541 5.7437027,7.85156216 5.63548649,7.75654054 L4.72966216,6.83804054 L3.82436486,7.74333784 C3.72987568,7.85155135 3.59474324,7.8922027 3.45960811,7.8922027 C3.32447297,7.8922027 3.20306757,7.83835946 3.09485135,7.74333784 C2.89214865,7.54063514 2.89214865,7.21652703 3.09485135,7.01382432 L4.00014865,6.10852703 L3.09485135,5.20322973 C2.89214865,5.00052703 2.89214865,4.67641892 3.09485135,4.47371622 C3.29755405,4.27101351 3.62166216,4.27101351 3.82436486,4.47371622 L4.72966216,5.37901351 L5.63495946,4.47371622 C5.83766216,4.27101351 6.16177027,4.27101351 6.36447297,4.47371622 C6.56717568,4.67641892 6.56717568,5.00052703 6.36447297,5.20322973 L5.45917568,6.10852703 L6.365,7.02702703 Z" id="Shape"/><path d="M9.04027027,0.770135135 L6.66216216,0.770135135 L6.58087027,0.310891892 C6.55394865,0.189481081 6.45945946,0.0944594595 6.33751892,0.0944594595 L3.1486,0.0944594595 C3.02718919,0.0944594595 2.93216757,0.188948649 2.90524865,0.310891892 L2.83768108,0.770135135 L0.419032432,0.770135135 C0.256978378,0.770135135 0.121843243,0.90527027 0.121843243,1.06732432 L0.121843243,2.13467568 C0.121843243,2.29672973 0.256978378,2.43186486 0.419032432,2.43186486 L9.04078919,2.43186486 C9.20284324,2.43186486 9.33797838,2.29672973 9.33797838,2.13467568 L9.33797838,1.06732432 C9.33797838,0.90527027 9.20284324,0.770135135 9.04026216,0.770135135 L9.04027027,0.770135135 Z" id="Shape"/></g></g></svg>