<svg width="14" height="14" viewBox="0 0 14 14" version="1.1" xmlns="http://www.w3.org/2000/svg" xmlns:xlink="http://www.w3.org/1999/xlink"><title>np_trash_858223_000000</title><desc>Created with Sketch.</desc><g id="Browser-extension" stroke="none" stroke-width="1" fill="none" fill-rule="evenodd"><g id="8.-Manage-whitelist" transform="translate(-501.000000, -272.000000)" fill="#A2A8BA" fill-rule="nonzero"><g id="np_trash_858223_000000" transform="translate(501.000000, 272.000000)"><path d="M1.07818919,3.97297297 L1.75957297,12.6756757 C1.79726324,13.3378378 2.38404865,13.8484973 3.06467568,13.8484973 L10.1785676,13.8484973 C10.8784162,13.8484973 11.4459838,13.3378378 11.4836703,12.6756757 L12.1650541,3.97297297 L1.07818919,3.97297297 Z M8.911,9.83783784 C9.19478378,10.1216216 9.19478378,10.575373 8.911,10.8591568 C8.77871514,11.0106557 8.58952973,11.0675676 8.40034054,11.0675676 C8.21115135,11.0675676 8.04118378,10.992187 7.88968108,10.8591568 L6.62152703,9.57325676 L5.35411081,10.840673 C5.22182595,10.9921719 5.03264054,11.0490838 4.84345135,11.0490838 C4.65426216,11.0490838 4.48429459,10.9737032 4.33279189,10.840673 C4.04900811,10.5568892 4.04900811,10.1031378 4.33279189,9.81935405 L5.60020811,8.55193784 L4.33279189,7.28452162 C4.04900811,7.00073784 4.04900811,6.54698649 4.33279189,6.2632027 C4.61657568,5.97941892 5.07032703,5.97941892 5.35411081,6.2632027 L6.62152703,7.53061892 L7.88894324,6.2632027 C8.17272703,5.97941892 8.62647838,5.97941892 8.91026216,6.2632027 C9.19404595,6.54698649 9.19404595,7.00073784 8.91026216,7.28452162 L7.64284595,8.55193784 L8.911,9.83783784 Z" id="Shape"/><path d="M12.6563784,1.07818919 L9.32702703,1.07818919 L9.21321838,0.435248649 C9.17552811,0.265273514 9.04324324,0.132243243 8.87252649,0.132243243 L4.40804,0.132243243 C4.23806486,0.132243243 4.10503459,0.264528108 4.06734811,0.435248649 L3.97275351,1.07818919 L0.586645405,1.07818919 C0.35976973,1.07818919 0.170580541,1.26737838 0.170580541,1.49425405 L0.170580541,2.98854595 C0.170580541,3.21542162 0.35976973,3.40461081 0.586645405,3.40461081 L12.6571049,3.40461081 C12.8839805,3.40461081 13.0731697,3.21542162 13.0731697,2.98854595 L13.0731697,1.49425405 C13.0731697,1.26737838 12.8839805,1.07818919 12.656367,1.07818919 L12.6563784,1.07818919 Z" id="Shape"/></g></g></g></svg>