<svg width="18" height="16" viewBox="0 0 18 16" version="1.1" xmlns="http://www.w3.org/2000/svg" xmlns:xlink="http://www.w3.org/1999/xlink"><title>unlocked</title><desc>Created with Sketch.</desc><g id="Symbols" stroke="none" stroke-width="1" fill="none" fill-rule="evenodd"><g id="#header-with-locks" transform="translate(-343.000000, -21.000000)" fill="#28B2FA" fill-rule="nonzero"><g id="unlocked"><path d="M349.09666,30.5 C348.272496,30.5 347.604202,31.1682933 347.604202,31.9924576 C347.604202,32.5452686 347.90584,33.0263158 348.352125,33.2842062 L348.352125,34.94373 L349.841224,34.94373 L349.841224,33.2842062 C350.287509,33.0263043 350.589146,32.5452686 350.589146,31.9924576 C350.589146,31.1682933 349.920853,30.5 349.096689,30.5 L349.09666,30.5 Z M360.43649,28.4274953 L357.955041,28.4274953 L357.955041,25.7565324 C357.955041,24.5017852 356.934646,23.4813899 355.679899,23.4813899 C354.425152,23.4813899 353.404757,24.5017852 353.404757,25.7565324 L353.404757,28.1796805 L353.506796,28.1796805 C354.438606,28.1796805 355.193246,28.93432 355.193246,29.8661301 L355.193246,35.3124292 C355.193246,36.2442392 354.438606,36.9988788 353.506796,36.9988788 L344.68645,37 C343.75464,37 343,36.2453605 343,35.3135504 L343,29.8661031 C343,28.9342931 343.75464,28.1796535 344.68645,28.1796535 L350.923299,28.1796535 L350.923299,25.7565054 C350.923299,23.1337677 353.057153,21 355.679804,21 C358.302542,21 360.43631,23.1338539 360.43631,25.7565054 L360.43649,28.4274953 Z"/></g></g></g></svg>