<svg xmlns="http://www.w3.org/2000/svg" width="30" height="30" viewBox="0 0 30 30">
    <g fill="#5D6D74" fill-rule="evenodd">
        <path d="M15 .003C11.546.003 8.938 0 6.88.233c-2.059.232-3.662.715-4.8 1.854C.94 3.227.458 4.83.227 6.887-.002 8.944 0 11.551 0 15.002c0 3.453-.001 6.06.234 8.117.235 2.058.725 3.663 1.866 4.8 1.141 1.136 2.742 1.62 4.799 1.852 2.055.232 4.66.229 8.102.229 3.443 0 6.046.001 8.101-.232 2.057-.234 3.661-.723 4.8-1.862 1.14-1.138 1.63-2.74 1.864-4.798.235-2.057.234-4.662.234-8.109 0-3.445.003-6.05-.228-8.105-.23-2.057-.714-3.66-1.85-4.8-1.137-1.14-2.74-1.627-4.8-1.862C21.065 0 18.455 0 14.999 0L15 .003zm0 2.308c3.455 0 6.031.01 7.865.219 1.833.21 2.828.597 3.425 1.197.598.599.987 1.595 1.193 3.428.207 1.832.212 4.405.212 7.849s-.011 6.016-.22 7.847c-.21 1.832-.6 2.827-1.202 3.428-.601.6-1.6.991-3.43 1.199-1.83.21-4.4.22-7.84.22-3.442 0-6.012-.008-7.844-.214-1.83-.206-2.827-.596-3.429-1.194-.6-.599-.99-1.596-1.201-3.429-.21-1.831-.221-4.406-.221-7.855 0-3.452.006-6.026.212-7.858.206-1.833.596-2.828 1.193-3.425.597-.597 1.59-.988 3.423-1.194 1.833-.206 4.41-.214 7.865-.214v-.004z"/>
        <path d="M14.984 6c-.551.01-.991.545-.984 1.195v10.61c-.004.315.1.62.288.844.187.226.445.351.712.351a.926.926 0 0 0 .711-.35c.189-.225.293-.53.289-.845V7.195a1.297 1.297 0 0 0-.294-.85.93.93 0 0 0-.722-.345zM16 23c0 1.333-2 1.333-2 0s2-1.333 2 0"/>
    </g>
</svg>
