<?xml version="1.0" encoding="UTF-8"?>
<svg height="120px" viewBox="0 0 305 120" version="1.1" xmlns="http://www.w3.org/2000/svg" xmlns:xlink="http://www.w3.org/1999/xlink">
    <!-- Generator: Sketch 47.1 (45422) - http://www.bohemiancoding.com/sketch -->
    <title>gnosis_logo</title>
    <desc>Created with Sketch.</desc>
    <defs></defs>
    <g id="Page-1" stroke="none" stroke-width="1" fill="none" fill-rule="evenodd">
        <g id="gnosis_logo" fill-rule="nonzero" fill="#00A6C4">
            <g id="Group">
                <path d="M200.7,29.9 L196.3,34.3 C199.8,39.8 200.9,46.7 198.5,53.3 C194.5,64.5 182.1,70.4 170.8,66.4 C169.2,65.8 167.7,65.1 166.4,64.2 L152.3,78.3 L140,65.9 C134.3,69.7 127,70.8 120.1,68.4 C108.5,64.2 102.5,51.5 106.7,40 C107.3,38.2 108.2,36.6 109.2,35.1 L103.9,29.8 L102.9,31.5 C97.4,40.5 94.4,50.9 94.4,61.6 C94.3,93.5 120.3,119.6 152.2,119.6 L152.3,119.6 C184.2,119.6 210.1,93.7 210.2,61.8 C210.2,51.2 207.3,40.8 201.8,31.7 L200.7,29.9 Z" id="Shape"></path>
                <path d="M115.7,41.6 C114.2,43.6 113.3,46.1 113.3,48.8 C113.3,55.3 118.6,60.6 125.1,60.6 C127.8,60.6 130.3,59.7 132.3,58.1 L115.7,41.6 Z" id="Shape"></path>
                <path d="M173.6,57.1 C175.5,58.4 177.7,59.1 180.2,59.1 C186.7,59.1 192,53.8 192,47.3 C192,44.9 191.3,42.6 190,40.7 L173.6,57.1 Z" id="Shape"></path>
                <path d="M152.5,69.5 L104.7,21.5 L106.6,19.5 C118.4,7 134.5,0 151.8,0 L151.9,0 C169.4,0 186.2,7.5 197.9,20.5 L199.7,22.5 L152.5,69.5 Z M112.5,21.5 L152.5,61.6 L192,22.3 C181.4,11.7 167,5.6 152,5.6 L151.9,5.6 C137,5.6 123.1,11.2 112.5,21.5 Z" id="Shape"></path>
                <g transform="translate(0.000000, 46.000000)" id="Shape">
                    <path d="M99.8,54.4 L94.2,54 C70.4,52.5 37.6,46.6 16.4,27.5 C3.3,15.8 0.8,4.7 0.7,4.2 L0,0.8 L86.6,0.8 L86.1,4 C85.7,6.9 85.5,9.9 85.5,12.8 C85.5,26 89.3,38.8 96.6,49.7 L99.8,54.4 Z"></path>
                    <path d="M204.6,54.4 L207.7,49.7 C215,38.8 218.8,26.1 218.8,13 C218.8,10 218.6,6.9 218.2,4 L217.8,0.8 L304.4,0.8 L303.7,4.2 C303.6,4.7 301.1,15.8 288.1,27.5 C266.9,46.6 234,52.5 210.2,54 L204.6,54.4 Z"></path>
                </g>
            </g>
        </g>
    </g>
</svg>