<svg width="24" height="20" viewBox="0 0 24 20" version="1.1" xmlns="http://www.w3.org/2000/svg" xmlns:xlink="http://www.w3.org/1999/xlink"><g id="Browser-extension" stroke="none" stroke-width="1" fill="none" fill-rule="evenodd"><g id="11.-Change-password" transform="translate(-236.000000, -599.000000)" fill="#FFF" fill-rule="nonzero"><g id="Group-4" transform="translate(236.000000, 586.000000)"><path d="M24,20.8690314 C19.8090041,16.6780355 13.9699864,15.1500682 8.55661664,16.2633015 L11.3069577,19.0136426 C15.0941337,18.8281037 18.9358799,20.159618 21.8171896,23.0518417 L24,20.8690314 Z M19.6343793,25.2346521 C18.2264666,23.8267394 16.5347885,22.9099591 14.73397,22.4406548 L18.5866303,26.2933151 L19.6343793,25.2346521 Z M1.09140518,14.3751705 L4.4420191,17.7039563 C2.83765348,18.4897681 1.33151432,19.5375171 0,20.8690314 L2.17189632,23.0518417 C3.52523874,21.6984993 5.08594816,20.6944065 6.75579809,20.0286494 L9.2005457,22.473397 C7.4324693,22.9317872 5.75170532,23.8485675 4.36562074,25.2346521 L4.36562074,25.2455662 L6.53751705,27.4174625 C8.0218281,25.9331514 9.96452933,25.1909959 11.9072306,25.1691678 L19.6234652,32.8744884 L21.0095498,31.4993179 L2.49931787,13 L1.09140518,14.3751705 Z M8.73124147,29.6002729 L12.005457,32.8744884 L15.2796726,29.6002729 C13.478854,27.7885402 10.5429741,27.7885402 8.73124147,29.6002729 Z" id="no-connection"/></g></g></g></svg>