<svg xmlns="http://www.w3.org/2000/svg" xmlns:xlink="http://www.w3.org/1999/xlink" width="113" height="85" viewBox="0 0 113 85">
    <defs>
        <path id="a" d="M108.635 63.477a14.113 14.113 0 0 0-5.718-.323V21.918H4.766v51.849c0 1.412 1.05 2.469 2.454 2.469h83.802A14.002 14.002 0 0 0 91.58 81H7.354C3.318 80.972 0 77.656 0 73.636V7.364C0 3.327 3.346 0 7.407 0h93.822c4.041 0 7.377 3.297 7.406 7.31v56.167zM4.765 7.242v9.911h37.164c-1.414-1.5-2.598-3.14-3.682-4.684-1.419-2.023-2.713-3.91-4.026-5.265-1.314-1.355-2.56-2.13-4.066-2.362a2.416 2.416 0 0 1-.269-.077H7.22c-1.404 0-2.454 1.06-2.454 2.477zm96.637-2.477H39.071c1.355 1.563 2.598 3.223 3.741 4.84 2.778 3.933 5.208 7.059 9.334 7.51.155 0 .309.009.464.038h51.261v-9.91c0-1.419-1.057-2.478-2.469-2.478z"/>
    </defs>
    <g fill="none" fill-rule="evenodd">
        <use fill="#D4D5D3" xlink:href="#a"/>
        <circle cx="12.175" cy="12.175" r="2.645" fill="#D4D5D3"/>
        <circle cx="21.645" cy="12.175" r="2.645" fill="#D4D5D3"/>
        <circle cx="31.235" cy="12.175" r="2.645" fill="#D4D5D3"/>
        <g fill-rule="nonzero">
            <path fill="#D4D5D3" d="M69 42.138L67.837 39l.8-1.8c.1-.237.05-.5-.124-.688L66.325 34.3a3.544 3.544 0 0 0-3.675-.85l-.612.212-3.35-3.624L53.025 30h-.037l-5.7.05-3.338 3.65-.6-.213a3.51 3.51 0 0 0-3.7.863l-2.225 2.25a.504.504 0 0 0-.112.55l.837 1.875L37 42.163 37.75 45l3.4 12.913A6.555 6.555 0 0 0 43.7 61.6s4.125 2.913 8.188 5.55c.362.238.737.4 1.137.4s.775-.162 1.138-.4c4.575-3 8.187-5.563 8.187-5.563 1.25-.9 2.15-2.2 2.538-3.687l3.374-12.912.738-2.85z"/>
            <path fill="#F7F5F5" d="M53.75 53.1a1.523 1.523 0 0 0-.363-.112h-.4c-.05 0-.212.05-.362.112L51 53.775c-.15.063-.4.175-.55.25L48 55.3c-.15.075-.162.213-.025.313l2.162 1.525c.138.1.35.262.476.375l.962.825c.125.112.325.287.45.4l.925.825a.342.342 0 0 0 .45 0l.95-.825c.125-.113.325-.288.45-.4l.963-.838c.125-.112.337-.275.475-.375l2.162-1.537c.138-.1.125-.238-.025-.313l-2.45-1.25c-.15-.075-.4-.187-.55-.25L53.75 53.1z"/>
            <path fill="#F7F5F5" d="M65.477 42.695c.05-.163.05-.225.05-.225 0-.163-.013-.438-.038-.6l-.125-.363c-.075-.15-.2-.387-.3-.525l-1.412-2.087a6.134 6.134 0 0 0-.363-.488l-1.825-2.287c-.1-.125-.2-.238-.212-.225h-.025s-.138.025-.3.05l-2.788.55a9.717 9.717 0 0 1-.587.112l-.05.013a1.557 1.557 0 0 1-.588-.038l-2.337-.75c-.163-.05-.425-.125-.575-.162 0 0-.475-.113-.863-.1-.387 0-.862.1-.862.1a7.716 7.716 0 0 0-.575.162l-2.338.75c-.162.05-.425.063-.587.038l-.05-.013c-.163-.025-.425-.087-.588-.112l-2.812-.525c-.163-.038-.3-.05-.3-.05h-.025c-.013 0-.113.1-.213.225l-1.825 2.287c-.1.125-.262.35-.362.488l-1.413 2.087a7.15 7.15 0 0 0-.3.525l-.125.363c-.025.162-.05.437-.037.6 0 0 0 .05.05.225.087.3.3.575.3.575.1.125.287.337.4.45l4.137 4.4a.52.52 0 0 1 .088.5l-.863 2.037a.866.866 0 0 0-.012.563l.237.637c.2.538.538 1.013.988 1.375l.837.675c.125.1.35.138.5.063l2.65-1.263a2.7 2.7 0 0 0 .5-.337l1.9-1.713a.672.672 0 0 0 .038-.95l-3.988-2.687a.349.349 0 0 1-.112-.438l1.75-3.3a.728.728 0 0 0 .025-.537l-.213-.488a.859.859 0 0 0-.4-.387l-5.137-1.925c-.15-.063-.15-.125.012-.138l3.313-.312c.162-.013.425.012.587.05l2.95.825c.163.05.263.212.238.375l-1.025 5.612a1.39 1.39 0 0 0 .012.513c.038.125.2.237.363.275l2.05.437c.162.038.425.038.587 0l1.913-.437c.162-.038.325-.163.362-.275.038-.113.05-.35.013-.513l-1.013-5.612c-.025-.163.075-.338.238-.375l2.95-.825c.162-.05.425-.063.587-.05l3.313.312c.162.013.175.075.012.138l-5.137 1.95c-.15.062-.338.225-.4.387l-.213.488c-.062.15-.062.4.025.537l1.763 3.3a.353.353 0 0 1-.113.438l-3.987 2.7c-.263.262-.238.7.037.95l1.9 1.712c.125.113.35.263.5.325l2.663 1.263c.15.075.375.037.5-.063l.837-.687c.45-.363.788-.838.975-1.375l.238-.638c.062-.15.05-.412-.013-.562l-.862-2.038a.52.52 0 0 1 .087-.5l4.138-4.4c.112-.125.287-.325.4-.45-.025-.037.2-.312.275-.612z"/>
        </g>
        <path fill="#F02525" fill-rule="nonzero" d="M105 69c-4.416 0-8 3.584-8 8s3.584 8 8 8 8-3.584 8-8-3.584-8-8-8z"/>
        <path fill="#FFF" d="M105.8 81h-1.6v-1.6h1.6zM105.8 77.8h-1.6V73h1.6z"/>
    </g>
</svg>
